<svg width="1182" height="828" xmlns="http://www.w3.org/2000/svg"><g><path d="M-99.35224327258766,-101.89311873167753L-133.98613250814378,495.5076370295137L-79.45006722584367,275.7744728587568Z" fill="#f6f6f6" stroke="#f6f6f6"></path><path d="M-99.35224327258766,-101.89311873167753L-79.45006722584367,275.7744728587568L-39.03841534629464,75.55743805132806Z" fill="#ffffff" stroke="#ffffff"></path><path d="M-99.35224327258766,-101.89311873167753L-39.03841534629464,75.55743805132806L73.25043224729598,25.213110269978642Z" fill="#fdfdfd" stroke="#fdfdfd"></path><path d="M-99.35224327258766,-101.89311873167753L73.25043224729598,25.213110269978642L41.17124816402793,-131.7084688693285Z" fill="#fbfbfb" stroke="#fbfbfb"></path><path d="M41.17124816402793,-131.7084688693285L73.25043224729598,25.213110269978642L177.87345003336668,-118.2793294172734Z" fill="#f4f4f4" stroke="#f4f4f4"></path><path d="M41.17124816402793,-131.7084688693285L177.87345003336668,-118.2793294172734L431.4622581191361,-126.31987019442022Z" fill="#ebebeb" stroke="#ebebeb"></path><path d="M177.87345003336668,-118.2793294172734L73.25043224729598,25.213110269978642L181.31710767745972,89.77043844759464Z" fill="#f0f0f0" stroke="#f0f0f0"></path><path d="M177.87345003336668,-118.2793294172734L181.31710767745972,89.77043844759464L378.7329726945609,125.00794077292085Z" fill="#e9e9e9" stroke="#e9e9e9"></path><path d="M177.87345003336668,-118.2793294172734L378.7329726945609,125.00794077292085L431.4622581191361,-126.31987019442022Z" fill="#e3e3e3" stroke="#e3e3e3"></path><path d="M431.4622581191361,-126.31987019442022L378.7329726945609,125.00794077292085L537.7581042889506,53.56644608080387Z" fill="#d9d9d9" stroke="#d9d9d9"></path><path d="M431.4622581191361,-126.31987019442022L537.7581042889506,53.56644608080387L572.4793775752187,-84.2807659227401Z" fill="#d2d2d2" stroke="#d2d2d2"></path><path d="M431.4622581191361,-126.31987019442022L572.4793775752187,-84.2807659227401L661.9946801662445,-119.15734606795013Z" fill="#cecece" stroke="#cecece"></path><path d="M572.4793775752187,-84.2807659227401L537.7581042889506,53.56644608080387L705.8443674165756,60.28762307949364Z" fill="#c9c9c9" stroke="#c9c9c9"></path><path d="M572.4793775752187,-84.2807659227401L705.8443674165756,60.28762307949364L661.9946801662445,-119.15734606795013Z" fill="#c4c4c4" stroke="#c4c4c4"></path><path d="M661.9946801662445,-119.15734606795013L705.8443674165756,60.28762307949364L824.1811311151832,-60.15251079574227Z" fill="#b9b9b9" stroke="#b9b9b9"></path><path d="M661.9946801662445,-119.15734606795013L824.1811311151832,-60.15251079574227L955.9570141509175,-59.75799081847072Z" fill="#adadad" stroke="#adadad"></path><path d="M661.9946801662445,-119.15734606795013L955.9570141509175,-59.75799081847072L1297.4867946468294,-56.236533019691706Z" fill="#949494" stroke="#949494"></path><path d="M824.1811311151832,-60.15251079574227L705.8443674165756,60.28762307949364L808.3721425104886,54.23972725868225Z" fill="#b2b2b2" stroke="#b2b2b2"></path><path d="M824.1811311151832,-60.15251079574227L808.3721425104886,54.23972725868225L955.9570141509175,-59.75799081847072Z" fill="#a5a5a5" stroke="#a5a5a5"></path><path d="M955.9570141509175,-59.75799081847072L808.3721425104886,54.23972725868225L950.5123327486217,87.11774331517518Z" fill="#9f9f9f" stroke="#9f9f9f"></path><path d="M955.9570141509175,-59.75799081847072L950.5123327486217,87.11774331517518L1127.9895782656968,-49.15677510201931Z" fill="#8e8e8e" stroke="#8e8e8e"></path><path d="M955.9570141509175,-59.75799081847072L1127.9895782656968,-49.15677510201931L1297.4867946468294,-56.236533019691706Z" fill="#808080" stroke="#808080"></path><path d="M1127.9895782656968,-49.15677510201931L950.5123327486217,87.11774331517518L1132.1934347972274,121.51809942908585Z" fill="#858585" stroke="#858585"></path><path d="M1127.9895782656968,-49.15677510201931L1132.1934347972274,121.51809942908585L1236.1315709073097,119.97122934088111Z" fill="#808080" stroke="#808080"></path><path d="M1127.9895782656968,-49.15677510201931L1236.1315709073097,119.97122934088111L1297.4867946468294,-56.236533019691706Z" fill="#808080" stroke="#808080"></path><path d="M1297.4867946468294,-56.236533019691706L1236.1315709073097,119.97122934088111L1308.706244006753,184.14477358572185Z" fill="#808080" stroke="#808080"></path><path d="M-39.03841534629464,75.55743805132806L-79.45006722584367,275.7744728587568L31.281508533284068,198.63234448246658Z" fill="#f8f8f8" stroke="#f8f8f8"></path><path d="M-39.03841534629464,75.55743805132806L31.281508533284068,198.63234448246658L73.25043224729598,25.213110269978642Z" fill="#fafafa" stroke="#fafafa"></path><path d="M73.25043224729598,25.213110269978642L31.281508533284068,198.63234448246658L181.31710767745972,89.77043844759464Z" fill="#f4f4f4" stroke="#f4f4f4"></path><path d="M181.31710767745972,89.77043844759464L31.281508533284068,198.63234448246658L188.46353360451758,276.24019489623606Z" fill="#ececec" stroke="#ececec"></path><path d="M181.31710767745972,89.77043844759464L188.46353360451758,276.24019489623606L378.7329726945609,125.00794077292085Z" fill="#e6e6e6" stroke="#e6e6e6"></path><path d="M378.7329726945609,125.00794077292085L188.46353360451758,276.24019489623606L420.88448454625905,261.6455772612244Z" fill="#dadada" stroke="#dadada"></path><path d="M378.7329726945609,125.00794077292085L420.88448454625905,261.6455772612244L566.7337576858699,246.33624603040516Z" fill="#d0d0d0" stroke="#d0d0d0"></path><path d="M378.7329726945609,125.00794077292085L566.7337576858699,246.33624603040516L537.7581042889506,53.56644608080387Z" fill="#d4d4d4" stroke="#d4d4d4"></path><path d="M537.7581042889506,53.56644608080387L566.7337576858699,246.33624603040516L686.0297983512282,170.405735084787Z" fill="#c8c8c8" stroke="#c8c8c8"></path><path d="M537.7581042889506,53.56644608080387L686.0297983512282,170.405735084787L705.8443674165756,60.28762307949364Z" fill="#c4c4c4" stroke="#c4c4c4"></path><path d="M705.8443674165756,60.28762307949364L686.0297983512282,170.405735084787L795.3663536533713,168.280473863706Z" fill="#b9b9b9" stroke="#b9b9b9"></path><path d="M705.8443674165756,60.28762307949364L795.3663536533713,168.280473863706L808.3721425104886,54.23972725868225Z" fill="#b4b4b4" stroke="#b4b4b4"></path><path d="M808.3721425104886,54.23972725868225L795.3663536533713,168.280473863706L950.5123327486217,87.11774331517518Z" fill="#a7a7a7" stroke="#a7a7a7"></path><path d="M950.5123327486217,87.11774331517518L795.3663536533713,168.280473863706L968.2907404191792,239.18503157794476Z" fill="#9c9c9c" stroke="#9c9c9c"></path><path d="M950.5123327486217,87.11774331517518L968.2907404191792,239.18503157794476L1112.205377407372,195.15459635294974Z" fill="#8a8a8a" stroke="#8a8a8a"></path><path d="M950.5123327486217,87.11774331517518L1112.205377407372,195.15459635294974L1132.1934347972274,121.51809942908585Z" fill="#868686" stroke="#868686"></path><path d="M1132.1934347972274,121.51809942908585L1112.205377407372,195.15459635294974L1236.1315709073097,119.97122934088111Z" fill="#7f7f7f" stroke="#7f7f7f"></path><path d="M1236.1315709073097,119.97122934088111L1112.205377407372,195.15459635294974L1308.706244006753,184.14477358572185Z" fill="#7d7d7d" stroke="#7d7d7d"></path><path d="M-79.45006722584367,275.7744728587568L-133.98613250814378,495.5076370295137L-96.46725344471633,388.6369516700506Z" fill="#dedede" stroke="#dedede"></path><path d="M-79.45006722584367,275.7744728587568L-96.46725344471633,388.6369516700506L133.8919671624899,339.4606932811439Z" fill="#e3e3e3" stroke="#e3e3e3"></path><path d="M-79.45006722584367,275.7744728587568L133.8919671624899,339.4606932811439L31.281508533284068,198.63234448246658Z" fill="#ebebeb" stroke="#ebebeb"></path><path d="M31.281508533284068,198.63234448246658L133.8919671624899,339.4606932811439L188.46353360451758,276.24019489623606Z" fill="#e4e4e4" stroke="#e4e4e4"></path><path d="M188.46353360451758,276.24019489623606L133.8919671624899,339.4606932811439L261.632280042395,399.8194528464228Z" fill="#d3d3d3" stroke="#d3d3d3"></path><path d="M188.46353360451758,276.24019489623606L261.632280042395,399.8194528464228L420.88448454625905,261.6455772612244Z" fill="#d1d1d1" stroke="#d1d1d1"></path><path d="M420.88448454625905,261.6455772612244L261.632280042395,399.8194528464228L423.3626461029053,434.1210758127272Z" fill="#c2c2c2" stroke="#c2c2c2"></path><path d="M420.88448454625905,261.6455772612244L423.3626461029053,434.1210758127272L481.49982056580484,406.0227934643626Z" fill="#bcbcbc" stroke="#bcbcbc"></path><path d="M420.88448454625905,261.6455772612244L481.49982056580484,406.0227934643626L566.7337576858699,246.33624603040516Z" fill="#c1c1c1" stroke="#c1c1c1"></path><path d="M566.7337576858699,246.33624603040516L481.49982056580484,406.0227934643626L659.6454637963325,374.35957308858633Z" fill="#b3b3b3" stroke="#b3b3b3"></path><path d="M566.7337576858699,246.33624603040516L659.6454637963325,374.35957308858633L686.0297983512282,170.405735084787Z" fill="#b7b7b7" stroke="#b7b7b7"></path><path d="M686.0297983512282,170.405735084787L659.6454637963325,374.35957308858633L766.847206922248,338.0855849850923Z" fill="#aaaaaa" stroke="#aaaaaa"></path><path d="M686.0297983512282,170.405735084787L766.847206922248,338.0855849850923L795.3663536533713,168.280473863706Z" fill="#adadad" stroke="#adadad"></path><path d="M795.3663536533713,168.280473863706L766.847206922248,338.0855849850923L931.3919424265623,325.17242800444365Z" fill="#9b9b9b" stroke="#9b9b9b"></path><path d="M795.3663536533713,168.280473863706L931.3919424265623,325.17242800444365L968.2907404191792,239.18503157794476Z" fill="#949494" stroke="#949494"></path><path d="M968.2907404191792,239.18503157794476L931.3919424265623,325.17242800444365L1173.550536800176,379.56965415738523Z" fill="#777777" stroke="#777777"></path><path d="M968.2907404191792,239.18503157794476L1173.550536800176,379.56965415738523L1112.205377407372,195.15459635294974Z" fill="#747474" stroke="#747474"></path><path d="M1112.205377407372,195.15459635294974L1173.550536800176,379.56965415738523L1265.127132581547,342.8184622898698Z" fill="#6c6c6c" stroke="#6c6c6c"></path><path d="M1112.205377407372,195.15459635294974L1265.127132581547,342.8184622898698L1308.706244006753,184.14477358572185Z" fill="#757575" stroke="#757575"></path><path d="M1308.706244006753,184.14477358572185L1265.127132581547,342.8184622898698L1277.6255323179066,499.1533906571567Z" fill="#666666" stroke="#666666"></path><path d="M1308.706244006753,184.14477358572185L1277.6255323179066,499.1533906571567L1322.185874786228,980.2773247752339Z" fill="#3b3b3b" stroke="#3b3b3b"></path><path d="M-96.46725344471633,388.6369516700506L-133.98613250814378,495.5076370295137L73.38802926242352,576.2489941343665Z" fill="#c9c9c9" stroke="#c9c9c9"></path><path d="M-96.46725344471633,388.6369516700506L73.38802926242352,576.2489941343665L133.8919671624899,339.4606932811439Z" fill="#cecece" stroke="#cecece"></path><path d="M133.8919671624899,339.4606932811439L73.38802926242352,576.2489941343665L207.91797319427133,504.8338112141937Z" fill="#bebebe" stroke="#bebebe"></path><path d="M133.8919671624899,339.4606932811439L207.91797319427133,504.8338112141937L261.632280042395,399.8194528464228Z" fill="#c6c6c6" stroke="#c6c6c6"></path><path d="M261.632280042395,399.8194528464228L207.91797319427133,504.8338112141937L391.05727043934166,536.8705010320991Z" fill="#b1b1b1" stroke="#b1b1b1"></path><path d="M261.632280042395,399.8194528464228L391.05727043934166,536.8705010320991L423.3626461029053,434.1210758127272Z" fill="#b1b1b1" stroke="#b1b1b1"></path><path d="M423.3626461029053,434.1210758127272L391.05727043934166,536.8705010320991L466.5510046016425,504.6961023565382Z" fill="#a4a4a4" stroke="#a4a4a4"></path><path d="M423.3626461029053,434.1210758127272L466.5510046016425,504.6961023565382L481.49982056580484,406.0227934643626Z" fill="#ababab" stroke="#ababab"></path><path d="M481.49982056580484,406.0227934643626L466.5510046016425,504.6961023565382L690.1091990433633,485.1402111724019Z" fill="#9e9e9e" stroke="#9e9e9e"></path><path d="M481.49982056580484,406.0227934643626L690.1091990433633,485.1402111724019L659.6454637963325,374.35957308858633Z" fill="#a1a1a1" stroke="#a1a1a1"></path><path d="M659.6454637963325,374.35957308858633L690.1091990433633,485.1402111724019L766.847206922248,338.0855849850923Z" fill="#989898" stroke="#989898"></path><path d="M766.847206922248,338.0855849850923L690.1091990433633,485.1402111724019L879.9689555726945,565.660490328446Z" fill="#818181" stroke="#818181"></path><path d="M766.847206922248,338.0855849850923L879.9689555726945,565.660490328446L931.3919424265623,325.17242800444365Z" fill="#818181" stroke="#818181"></path><path d="M931.3919424265623,325.17242800444365L879.9689555726945,565.660490328446L954.5508886501193,564.4929866865277Z" fill="#676767" stroke="#676767"></path><path d="M931.3919424265623,325.17242800444365L954.5508886501193,564.4929866865277L1096.7699187621474,564.0027789864689Z" fill="#5b5b5b" stroke="#5b5b5b"></path><path d="M931.3919424265623,325.17242800444365L1096.7699187621474,564.0027789864689L1173.550536800176,379.56965415738523Z" fill="#5d5d5d" stroke="#5d5d5d"></path><path d="M1173.550536800176,379.56965415738523L1096.7699187621474,564.0027789864689L1277.6255323179066,499.1533906571567Z" fill="#4b4b4b" stroke="#4b4b4b"></path><path d="M1173.550536800176,379.56965415738523L1277.6255323179066,499.1533906571567L1265.127132581547,342.8184622898698Z" fill="#5b5b5b" stroke="#5b5b5b"></path><path d="M-133.98613250814378,495.5076370295137L-60.725842947140336,1029.1425747424364L-49.864514311775565,785.3720817994326Z" fill="#808080" stroke="#808080"></path><path d="M-133.98613250814378,495.5076370295137L-49.864514311775565,785.3720817994326L-42.83906011842191,715.9795462153852Z" fill="#9c9c9c" stroke="#9c9c9c"></path><path d="M-133.98613250814378,495.5076370295137L-42.83906011842191,715.9795462153852L73.38802926242352,576.2489941343665Z" fill="#adadad" stroke="#adadad"></path><path d="M73.38802926242352,576.2489941343665L-42.83906011842191,715.9795462153852L110.03414458595216,671.5676270239055Z" fill="#989898" stroke="#989898"></path><path d="M73.38802926242352,576.2489941343665L110.03414458595216,671.5676270239055L207.91797319427133,504.8338112141937Z" fill="#a4a4a4" stroke="#a4a4a4"></path><path d="M207.91797319427133,504.8338112141937L110.03414458595216,671.5676270239055L276.1318474262953,676.0426429565996Z" fill="#969696" stroke="#969696"></path><path d="M207.91797319427133,504.8338112141937L276.1318474262953,676.0426429565996L391.05727043934166,536.8705010320991Z" fill="#9c9c9c" stroke="#9c9c9c"></path><path d="M391.05727043934166,536.8705010320991L276.1318474262953,676.0426429565996L364.0779144689441,669.9067664891481Z" fill="#898989" stroke="#898989"></path><path d="M391.05727043934166,536.8705010320991L364.0779144689441,669.9067664891481L576.1288431007415,642.1198436245322Z" fill="#848484" stroke="#848484"></path><path d="M391.05727043934166,536.8705010320991L576.1288431007415,642.1198436245322L466.5510046016425,504.6961023565382Z" fill="#8f8f8f" stroke="#8f8f8f"></path><path d="M466.5510046016425,504.6961023565382L576.1288431007415,642.1198436245322L690.1091990433633,485.1402111724019Z" fill="#8a8a8a" stroke="#8a8a8a"></path><path d="M690.1091990433633,485.1402111724019L576.1288431007415,642.1198436245322L725.1959036383778,730.3529924433678Z" fill="#6b6b6b" stroke="#6b6b6b"></path><path d="M690.1091990433633,485.1402111724019L725.1959036383778,730.3529924433678L879.9689555726945,565.660490328446Z" fill="#656565" stroke="#656565"></path><path d="M879.9689555726945,565.660490328446L725.1959036383778,730.3529924433678L837.1324426028877,732.1253184322268Z" fill="#474747" stroke="#474747"></path><path d="M879.9689555726945,565.660490328446L837.1324426028877,732.1253184322268L964.6975214313716,714.6400531288236Z" fill="#3c3c3c" stroke="#3c3c3c"></path><path d="M879.9689555726945,565.660490328446L964.6975214313716,714.6400531288236L954.5508886501193,564.4929866865277Z" fill="#454545" stroke="#454545"></path><path d="M954.5508886501193,564.4929866865277L964.6975214313716,714.6400531288236L1096.7699187621474,564.0027789864689Z" fill="#3a3a3a" stroke="#3a3a3a"></path><path d="M1096.7699187621474,564.0027789864689L964.6975214313716,714.6400531288236L1136.3082018122077,671.2558598164469Z" fill="#272727" stroke="#272727"></path><path d="M1096.7699187621474,564.0027789864689L1136.3082018122077,671.2558598164469L1277.6255323179066,499.1533906571567Z" fill="#343434" stroke="#343434"></path><path d="M1277.6255323179066,499.1533906571567L1136.3082018122077,671.2558598164469L1271.508464673534,724.6356787718832Z" fill="#262626" stroke="#262626"></path><path d="M1277.6255323179066,499.1533906571567L1271.508464673534,724.6356787718832L1322.185874786228,980.2773247752339Z" fill="#0a0a0a" stroke="#0a0a0a"></path><path d="M-42.83906011842191,715.9795462153852L-49.864514311775565,785.3720817994326L28.582590501755476,775.0619881879538Z" fill="#818181" stroke="#818181"></path><path d="M-42.83906011842191,715.9795462153852L28.582590501755476,775.0619881879538L110.03414458595216,671.5676270239055Z" fill="#878787" stroke="#878787"></path><path d="M110.03414458595216,671.5676270239055L28.582590501755476,775.0619881879538L185.2353953383863,801.6938614379615Z" fill="#7a7a7a" stroke="#7a7a7a"></path><path d="M110.03414458595216,671.5676270239055L185.2353953383863,801.6938614379615L276.1318474262953,676.0426429565996Z" fill="#7c7c7c" stroke="#7c7c7c"></path><path d="M276.1318474262953,676.0426429565996L185.2353953383863,801.6938614379615L362.7849959023297,797.7019005082548Z" fill="#6b6b6b" stroke="#6b6b6b"></path><path d="M276.1318474262953,676.0426429565996L362.7849959023297,797.7019005082548L364.0779144689441,669.9067664891481Z" fill="#727272" stroke="#727272"></path><path d="M364.0779144689441,669.9067664891481L362.7849959023297,797.7019005082548L540.1454957015812,852.3669759649783Z" fill="#5c5c5c" stroke="#5c5c5c"></path><path d="M364.0779144689441,669.9067664891481L540.1454957015812,852.3669759649783L576.1288431007415,642.1198436245322Z" fill="#626262" stroke="#626262"></path><path d="M576.1288431007415,642.1198436245322L540.1454957015812,852.3669759649783L725.1959036383778,730.3529924433678Z" fill="#505050" stroke="#505050"></path><path d="M725.1959036383778,730.3529924433678L540.1454957015812,852.3669759649783L732.1079713571817,844.3569159787148Z" fill="#424242" stroke="#424242"></path><path d="M725.1959036383778,730.3529924433678L732.1079713571817,844.3569159787148L791.2863868754357,849.0955614577979Z" fill="#373737" stroke="#373737"></path><path d="M725.1959036383778,730.3529924433678L791.2863868754357,849.0955614577979L837.1324426028877,732.1253184322268Z" fill="#333333" stroke="#333333"></path><path d="M837.1324426028877,732.1253184322268L791.2863868754357,849.0955614577979L987.4977368395776,845.1818910520524Z" fill="#252525" stroke="#252525"></path><path d="M837.1324426028877,732.1253184322268L987.4977368395776,845.1818910520524L964.6975214313716,714.6400531288236Z" fill="#1d1d1d" stroke="#1d1d1d"></path><path d="M964.6975214313716,714.6400531288236L987.4977368395776,845.1818910520524L1168.7936388049275,802.9662104509771Z" fill="#0a0a0a" stroke="#0a0a0a"></path><path d="M964.6975214313716,714.6400531288236L1168.7936388049275,802.9662104509771L1136.3082018122077,671.2558598164469Z" fill="#0e0e0e" stroke="#0e0e0e"></path><path d="M1136.3082018122077,671.2558598164469L1168.7936388049275,802.9662104509771L1271.508464673534,724.6356787718832Z" fill="#0b0b0b" stroke="#0b0b0b"></path><path d="M1271.508464673534,724.6356787718832L1168.7936388049275,802.9662104509771L1259.9919263273478,773.2926070690155Z" fill="#020202" stroke="#020202"></path><path d="M1271.508464673534,724.6356787718832L1259.9919263273478,773.2926070690155L1322.185874786228,980.2773247752339Z" fill="#000000" stroke="#000000"></path><path d="M-49.864514311775565,785.3720817994326L-60.725842947140336,1029.1425747424364L40.808057617396116,916.0325639136136Z" fill="#7e7e7e" stroke="#7e7e7e"></path><path d="M-49.864514311775565,785.3720817994326L40.808057617396116,916.0325639136136L28.582590501755476,775.0619881879538Z" fill="#7b7b7b" stroke="#7b7b7b"></path><path d="M28.582590501755476,775.0619881879538L40.808057617396116,916.0325639136136L185.2353953383863,801.6938614379615Z" fill="#757575" stroke="#757575"></path><path d="M185.2353953383863,801.6938614379615L40.808057617396116,916.0325639136136L169.5356714632362,992.8910055477172Z" fill="#727272" stroke="#727272"></path><path d="M185.2353953383863,801.6938614379615L169.5356714632362,992.8910055477172L389.34870396740735,980.3622639924288Z" fill="#696969" stroke="#696969"></path><path d="M185.2353953383863,801.6938614379615L389.34870396740735,980.3622639924288L362.7849959023297,797.7019005082548Z" fill="#656565" stroke="#656565"></path><path d="M362.7849959023297,797.7019005082548L389.34870396740735,980.3622639924288L540.1454957015812,852.3669759649783Z" fill="#5b5b5b" stroke="#5b5b5b"></path><path d="M540.1454957015812,852.3669759649783L389.34870396740735,980.3622639924288L473.2788184750825,1000.7424178160727Z" fill="#575757" stroke="#575757"></path><path d="M540.1454957015812,852.3669759649783L473.2788184750825,1000.7424178160727L641.9939086586237,989.4555269926786Z" fill="#4f4f4f" stroke="#4f4f4f"></path><path d="M540.1454957015812,852.3669759649783L641.9939086586237,989.4555269926786L732.1079713571817,844.3569159787148Z" fill="#454545" stroke="#454545"></path><path d="M732.1079713571817,844.3569159787148L641.9939086586237,989.4555269926786L836.785389482975,936.9978120736778Z" fill="#383838" stroke="#383838"></path><path d="M732.1079713571817,844.3569159787148L836.785389482975,936.9978120736778L791.2863868754357,849.0955614577979Z" fill="#323232" stroke="#323232"></path><path d="M791.2863868754357,849.0955614577979L836.785389482975,936.9978120736778L987.4977368395776,845.1818910520524Z" fill="#252525" stroke="#252525"></path><path d="M987.4977368395776,845.1818910520524L836.785389482975,936.9978120736778L996.3288259785622,949.9606493487954Z" fill="#1a1a1a" stroke="#1a1a1a"></path><path d="M987.4977368395776,845.1818910520524L996.3288259785622,949.9606493487954L1157.7345743682235,928.8287554867566Z" fill="#090909" stroke="#090909"></path><path d="M987.4977368395776,845.1818910520524L1157.7345743682235,928.8287554867566L1168.7936388049275,802.9662104509771Z" fill="#000000" stroke="#000000"></path><path d="M1168.7936388049275,802.9662104509771L1157.7345743682235,928.8287554867566L1259.9919263273478,773.2926070690155Z" fill="#000000" stroke="#000000"></path><path d="M1259.9919263273478,773.2926070690155L1157.7345743682235,928.8287554867566L1322.185874786228,980.2773247752339Z" fill="#000000" stroke="#000000"></path><path d="M-60.725842947140336,1029.1425747424364L1322.185874786228,980.2773247752339L473.2788184750825,1000.7424178160727Z" fill="#4d4d4d" stroke="#4d4d4d"></path><path d="M-60.725842947140336,1029.1425747424364L473.2788184750825,1000.7424178160727L169.5356714632362,992.8910055477172Z" fill="#6d6d6d" stroke="#6d6d6d"></path><path d="M-60.725842947140336,1029.1425747424364L169.5356714632362,992.8910055477172L40.808057617396116,916.0325639136136Z" fill="#787878" stroke="#787878"></path><path d="M169.5356714632362,992.8910055477172L473.2788184750825,1000.7424178160727L389.34870396740735,980.3622639924288Z" fill="#626262" stroke="#626262"></path><path d="M473.2788184750825,1000.7424178160727L1322.185874786228,980.2773247752339L641.9939086586237,989.4555269926786Z" fill="#2e2e2e" stroke="#2e2e2e"></path><path d="M641.9939086586237,989.4555269926786L1322.185874786228,980.2773247752339L996.3288259785622,949.9606493487954Z" fill="#121212" stroke="#121212"></path><path d="M641.9939086586237,989.4555269926786L996.3288259785622,949.9606493487954L836.785389482975,936.9978120736778Z" fill="#2c2c2c" stroke="#2c2c2c"></path><path d="M996.3288259785622,949.9606493487954L1322.185874786228,980.2773247752339L1157.7345743682235,928.8287554867566Z" fill="#000000" stroke="#000000"></path></g></svg>