<svg width="1528" height="711" xmlns="http://www.w3.org/2000/svg"><g><path d="M-18.017712724395096,-106.1740443832241L-97.46200386201963,226.84492067666724L-15.734594450332224,52.44687857106328Z" fill="#ffffdf" stroke="#ffffdf"></path><path d="M-18.017712724395096,-106.1740443832241L-15.734594450332224,52.44687857106328L112.36357786459848,-77.48300689505413Z" fill="#fffee7" stroke="#fffee7"></path><path d="M-18.017712724395096,-106.1740443832241L112.36357786459848,-77.48300689505413L282.19682310707867,-109.16077677858993Z" fill="#fff9de" stroke="#fff9de"></path><path d="M112.36357786459848,-77.48300689505413L-15.734594450332224,52.44687857106328L58.47745415754616,100.12074454454705Z" fill="#fffdde" stroke="#fffdde"></path><path d="M112.36357786459848,-77.48300689505413L58.47745415754616,100.12074454454705L220.64819431863725,27.259411325212568Z" fill="#fff9d9" stroke="#fff9d9"></path><path d="M112.36357786459848,-77.48300689505413L220.64819431863725,27.259411325212568L235.4420995269902,-55.13646558858454Z" fill="#fff6d8" stroke="#fff6d8"></path><path d="M112.36357786459848,-77.48300689505413L235.4420995269902,-55.13646558858454L282.19682310707867,-109.16077677858993Z" fill="#fff5d7" stroke="#fff5d7"></path><path d="M235.4420995269902,-55.13646558858454L220.64819431863725,27.259411325212568L277.84059908241034,57.29675280395895Z" fill="#fff3d0" stroke="#fff3d0"></path><path d="M235.4420995269902,-55.13646558858454L277.84059908241034,57.29675280395895L282.19682310707867,-109.16077677858993Z" fill="#fff2d1" stroke="#fff2d1"></path><path d="M282.19682310707867,-109.16077677858993L277.84059908241034,57.29675280395895L443.6192801501602,-29.476959162857383Z" fill="#ffefcb" stroke="#ffefcb"></path><path d="M282.19682310707867,-109.16077677858993L443.6192801501602,-29.476959162857383L569.5725508965552,-34.13346926216036Z" fill="#ffe8c0" stroke="#ffe8c0"></path><path d="M282.19682310707867,-109.16077677858993L569.5725508965552,-34.13346926216036L939.5953155565076,-103.67563346866518Z" fill="#ffdaaa" stroke="#ffdaaa"></path><path d="M443.6192801501602,-29.476959162857383L277.84059908241034,57.29675280395895L479.02272269828245,26.15359444404021Z" fill="#ffebbf" stroke="#ffebbf"></path><path d="M443.6192801501602,-29.476959162857383L479.02272269828245,26.15359444404021L569.5725508965552,-34.13346926216036Z" fill="#ffe3b7" stroke="#ffe3b7"></path><path d="M569.5725508965552,-34.13346926216036L479.02272269828245,26.15359444404021L596.117717041634,31.044903290458024Z" fill="#ffdeae" stroke="#ffdeae"></path><path d="M569.5725508965552,-34.13346926216036L596.117717041634,31.044903290458024L758.134643684607,-17.36881547840312Z" fill="#ffd7a4" stroke="#ffd7a4"></path><path d="M569.5725508965552,-34.13346926216036L758.134643684607,-17.36881547840312L939.5953155565076,-103.67563346866518Z" fill="#ffcd95" stroke="#ffcd95"></path><path d="M758.134643684607,-17.36881547840312L596.117717041634,31.044903290458024L666.7167494143359,79.034437246155Z" fill="#ffd498" stroke="#ffd498"></path><path d="M758.134643684607,-17.36881547840312L666.7167494143359,79.034437246155L821.8631231901236,146.05431184638292Z" fill="#ffce85" stroke="#ffce85"></path><path d="M758.134643684607,-17.36881547840312L821.8631231901236,146.05431184638292L873.956965780817,113.84997467044741Z" fill="#fbc77d" stroke="#fbc77d"></path><path d="M758.134643684607,-17.36881547840312L873.956965780817,113.84997467044741L892.6523010456003,-57.375625376589596Z" fill="#fac48c" stroke="#fac48c"></path><path d="M758.134643684607,-17.36881547840312L892.6523010456003,-57.375625376589596L939.5953155565076,-103.67563346866518Z" fill="#f8c28f" stroke="#f8c28f"></path><path d="M892.6523010456003,-57.375625376589596L873.956965780817,113.84997467044741L955.5720831546932,51.48550987243652Z" fill="#f5be83" stroke="#f5be83"></path><path d="M892.6523010456003,-57.375625376589596L955.5720831546932,51.48550987243652L939.5953155565076,-103.67563346866518Z" fill="#f4bc8c" stroke="#f4bc8c"></path><path d="M939.5953155565076,-103.67563346866518L955.5720831546932,51.48550987243652L1117.2801777720451,-74.16505575412884Z" fill="#efb488" stroke="#efb488"></path><path d="M939.5953155565076,-103.67563346866518L1117.2801777720451,-74.16505575412884L1181.482521703001,-85.05782792111859Z" fill="#eaac84" stroke="#eaac84"></path><path d="M939.5953155565076,-103.67563346866518L1181.482521703001,-85.05782792111859L1592.0413031964563,-69.89627883536741Z" fill="#e09d80" stroke="#e09d80"></path><path d="M1117.2801777720451,-74.16505575412884L955.5720831546932,51.48550987243652L1105.0569428876042,98.6974997445941Z" fill="#ebae7e" stroke="#ebae7e"></path><path d="M1117.2801777720451,-74.16505575412884L1105.0569428876042,98.6974997445941L1213.7927013076842,96.40040357830003Z" fill="#e6a676" stroke="#e6a676"></path><path d="M1117.2801777720451,-74.16505575412884L1213.7927013076842,96.40040357830003L1181.482521703001,-85.05782792111859Z" fill="#e4a380" stroke="#e4a380"></path><path d="M1181.482521703001,-85.05782792111859L1213.7927013076842,96.40040357830003L1340.7897431612946,-59.00541745591909Z" fill="#df9c80" stroke="#df9c80"></path><path d="M1181.482521703001,-85.05782792111859L1340.7897431612946,-59.00541745591909L1592.0413031964563,-69.89627883536741Z" fill="#d78f80" stroke="#d78f80"></path><path d="M1340.7897431612946,-59.00541745591909L1213.7927013076842,96.40040357830003L1369.780914899893,99.02747075539082Z" fill="#db9574" stroke="#db9574"></path><path d="M1340.7897431612946,-59.00541745591909L1369.780914899893,99.02747075539082L1468.3825661730953,-33.4154994552955Z" fill="#d68d7e" stroke="#d68d7e"></path><path d="M1340.7897431612946,-59.00541745591909L1468.3825661730953,-33.4154994552955L1592.0413031964563,-69.89627883536741Z" fill="#d18580" stroke="#d18580"></path><path d="M1468.3825661730953,-33.4154994552955L1369.780914899893,99.02747075539082L1546.5531375585124,67.36071803839877Z" fill="#d18674" stroke="#d18674"></path><path d="M1468.3825661730953,-33.4154994552955L1546.5531375585124,67.36071803839877L1592.0413031964563,-69.89627883536741Z" fill="#cc8080" stroke="#cc8080"></path><path d="M1592.0413031964563,-69.89627883536741L1546.5531375585124,67.36071803839877L1657.6064473832957,18.531348688993603Z" fill="#c8807d" stroke="#c8807d"></path><path d="M-15.734594450332224,52.44687857106328L-97.46200386201963,226.84492067666724L58.47745415754616,100.12074454454705Z" fill="#ffffcc" stroke="#ffffcc"></path><path d="M58.47745415754616,100.12074454454705L-97.46200386201963,226.84492067666724L54.35759081505239,216.78892196156085Z" fill="#fffebd" stroke="#fffebd"></path><path d="M58.47745415754616,100.12074454454705L54.35759081505239,216.78892196156085L142.73518519476056,183.85830228915438Z" fill="#fffbb9" stroke="#fffbb9"></path><path d="M58.47745415754616,100.12074454454705L142.73518519476056,183.85830228915438L220.64819431863725,27.259411325212568Z" fill="#fff8c3" stroke="#fff8c3"></path><path d="M220.64819431863725,27.259411325212568L142.73518519476056,183.85830228915438L277.84059908241034,57.29675280395895Z" fill="#fff5c0" stroke="#fff5c0"></path><path d="M277.84059908241034,57.29675280395895L142.73518519476056,183.85830228915438L313.4923300659284,218.7609182461165Z" fill="#fff3ae" stroke="#fff3ae"></path><path d="M277.84059908241034,57.29675280395895L313.4923300659284,218.7609182461165L470.4759091208689,190.1107915933244Z" fill="#ffeea4" stroke="#ffeea4"></path><path d="M277.84059908241034,57.29675280395895L470.4759091208689,190.1107915933244L479.02272269828245,26.15359444404021Z" fill="#ffeaad" stroke="#ffeaad"></path><path d="M479.02272269828245,26.15359444404021L470.4759091208689,190.1107915933244L581.1236772313714,199.8316005198285Z" fill="#ffe294" stroke="#ffe294"></path><path d="M479.02272269828245,26.15359444404021L581.1236772313714,199.8316005198285L596.117717041634,31.044903290458024Z" fill="#ffde9b" stroke="#ffde9b"></path><path d="M596.117717041634,31.044903290458024L581.1236772313714,199.8316005198285L666.7167494143359,79.034437246155Z" fill="#ffd98e" stroke="#ffd98e"></path><path d="M666.7167494143359,79.034437246155L581.1236772313714,199.8316005198285L669.3101403792389,195.9627057914622Z" fill="#ffd77e" stroke="#ffd77e"></path><path d="M666.7167494143359,79.034437246155L669.3101403792389,195.9627057914622L821.8631231901236,146.05431184638292Z" fill="#ffd078" stroke="#ffd078"></path><path d="M873.956965780817,113.84997467044741L821.8631231901236,146.05431184638292L1007.8253998374566,161.4066189294681Z" fill="#f6be6b" stroke="#f6be6b"></path><path d="M873.956965780817,113.84997467044741L1007.8253998374566,161.4066189294681L955.5720831546932,51.48550987243652Z" fill="#f3ba70" stroke="#f3ba70"></path><path d="M955.5720831546932,51.48550987243652L1007.8253998374566,161.4066189294681L1105.0569428876042,98.6974997445941Z" fill="#eeb26e" stroke="#eeb26e"></path><path d="M1105.0569428876042,98.6974997445941L1007.8253998374566,161.4066189294681L1056.9528294727206,243.69260007049888Z" fill="#ecaf5d" stroke="#ecaf5d"></path><path d="M1105.0569428876042,98.6974997445941L1056.9528294727206,243.69260007049888L1201.734034488909,192.1494428277947Z" fill="#e7a857" stroke="#e7a857"></path><path d="M1105.0569428876042,98.6974997445941L1201.734034488909,192.1494428277947L1213.7927013076842,96.40040357830003Z" fill="#e4a360" stroke="#e4a360"></path><path d="M1213.7927013076842,96.40040357830003L1201.734034488909,192.1494428277947L1369.780914899893,99.02747075539082Z" fill="#de9a60" stroke="#de9a60"></path><path d="M1369.780914899893,99.02747075539082L1201.734034488909,192.1494428277947L1401.6695349779911,150.6570218806155Z" fill="#da945c" stroke="#da945c"></path><path d="M1369.780914899893,99.02747075539082L1401.6695349779911,150.6570218806155L1546.5531375585124,67.36071803839877Z" fill="#d38866" stroke="#d38866"></path><path d="M1546.5531375585124,67.36071803839877L1401.6695349779911,150.6570218806155L1493.3504832722247,188.74885034980252Z" fill="#d0845f" stroke="#d0845f"></path><path d="M1546.5531375585124,67.36071803839877L1493.3504832722247,188.74885034980252L1571.8024054449052,173.17300647962838Z" fill="#cc805d" stroke="#cc805d"></path><path d="M1546.5531375585124,67.36071803839877L1571.8024054449052,173.17300647962838L1657.6064473832957,18.531348688993603Z" fill="#c9806a" stroke="#c9806a"></path><path d="M1657.6064473832957,18.531348688993603L1571.8024054449052,173.17300647962838L1676.2954923673533,319.84395686304197Z" fill="#c68056" stroke="#c68056"></path><path d="M-97.46200386201963,226.84492067666724L-99.09750238526613,571.4448424731381L-95.51826398819685,484.94595383293927Z" fill="#fdc889" stroke="#fdc889"></path><path d="M-97.46200386201963,226.84492067666724L-95.51826398819685,484.94595383293927L-75.95932884607464,365.0765623128973Z" fill="#ffda8b" stroke="#ffda8b"></path><path d="M-97.46200386201963,226.84492067666724L-75.95932884607464,365.0765623128973L54.35759081505239,216.78892196156085Z" fill="#ffeca3" stroke="#ffeca3"></path><path d="M54.35759081505239,216.78892196156085L-75.95932884607464,365.0765623128973L99.09271620912477,372.54879942629486Z" fill="#ffe18d" stroke="#ffe18d"></path><path d="M54.35759081505239,216.78892196156085L99.09271620912477,372.54879942629486L167.2715709800832,304.21824486227706Z" fill="#ffe18c" stroke="#ffe18c"></path><path d="M54.35759081505239,216.78892196156085L167.2715709800832,304.21824486227706L142.73518519476056,183.85830228915438Z" fill="#ffeea0" stroke="#ffeea0"></path><path d="M142.73518519476056,183.85830228915438L167.2715709800832,304.21824486227706L313.4923300659284,218.7609182461165Z" fill="#ffe998" stroke="#ffe998"></path><path d="M313.4923300659284,218.7609182461165L167.2715709800832,304.21824486227706L288.94116756971925,306.86048979870975Z" fill="#ffde86" stroke="#ffde86"></path><path d="M313.4923300659284,218.7609182461165L288.94116756971925,306.86048979870975L402.1798490011133,270.7471801387146Z" fill="#ffdd83" stroke="#ffdd83"></path><path d="M313.4923300659284,218.7609182461165L402.1798490011133,270.7471801387146L470.4759091208689,190.1107915933244Z" fill="#ffe189" stroke="#ffe189"></path><path d="M470.4759091208689,190.1107915933244L402.1798490011133,270.7471801387146L539.0355121600442,370.17594441538677Z" fill="#ffd06f" stroke="#ffd06f"></path><path d="M470.4759091208689,190.1107915933244L539.0355121600442,370.17594441538677L581.1236772313714,199.8316005198285Z" fill="#ffd06f" stroke="#ffd06f"></path><path d="M581.1236772313714,199.8316005198285L539.0355121600442,370.17594441538677L667.3568602185696,307.27543603396043Z" fill="#ffc359" stroke="#ffc359"></path><path d="M581.1236772313714,199.8316005198285L667.3568602185696,307.27543603396043L669.3101403792389,195.9627057914622Z" fill="#ffcb67" stroke="#ffcb67"></path><path d="M669.3101403792389,195.9627057914622L667.3568602185696,307.27543603396043L805.2643132256344,349.04642092529684Z" fill="#ffba4c" stroke="#ffba4c"></path><path d="M669.3101403792389,195.9627057914622L805.2643132256344,349.04642092529684L821.8631231901236,146.05431184638292Z" fill="#ffc157" stroke="#ffc157"></path><path d="M821.8631231901236,146.05431184638292L805.2643132256344,349.04642092529684L1026.611390109174,298.0493372422643Z" fill="#f7ae46" stroke="#f7ae46"></path><path d="M821.8631231901236,146.05431184638292L1026.611390109174,298.0493372422643L1007.8253998374566,161.4066189294681Z" fill="#f2b458" stroke="#f2b458"></path><path d="M1007.8253998374566,161.4066189294681L1026.611390109174,298.0493372422643L1056.9528294727206,243.69260007049888Z" fill="#eda649" stroke="#eda649"></path><path d="M1056.9528294727206,243.69260007049888L1026.611390109174,298.0493372422643L1126.5203771344386,310.8885625516996Z" fill="#eb9736" stroke="#eb9736"></path><path d="M1056.9528294727206,243.69260007049888L1126.5203771344386,310.8885625516996L1201.734034488909,192.1494428277947Z" fill="#e7993f" stroke="#e7993f"></path><path d="M1201.734034488909,192.1494428277947L1126.5203771344386,310.8885625516996L1217.7317711152136,356.3532718690112Z" fill="#e38c30" stroke="#e38c30"></path><path d="M1201.734034488909,192.1494428277947L1217.7317711152136,356.3532718690112L1392.1011343505234,336.96876980597153Z" fill="#de812d" stroke="#de812d"></path><path d="M1201.734034488909,192.1494428277947L1392.1011343505234,336.96876980597153L1401.6695349779911,150.6570218806155Z" fill="#da8944" stroke="#da8944"></path><path d="M1401.6695349779911,150.6570218806155L1392.1011343505234,336.96876980597153L1493.3504832722247,188.74885034980252Z" fill="#d37f45" stroke="#d37f45"></path><path d="M1493.3504832722247,188.74885034980252L1392.1011343505234,336.96876980597153L1519.4390021590516,307.95507268747315Z" fill="#d17133" stroke="#d17133"></path><path d="M1493.3504832722247,188.74885034980252L1519.4390021590516,307.95507268747315L1571.8024054449052,173.17300647962838Z" fill="#cd7645" stroke="#cd7645"></path><path d="M1571.8024054449052,173.17300647962838L1519.4390021590516,307.95507268747315L1676.2954923673533,319.84395686304197Z" fill="#c96d37" stroke="#c96d37"></path><path d="M-75.95932884607464,365.0765623128973L-95.51826398819685,484.94595383293927L16.425074292346835,430.16263637691736Z" fill="#fdc884" stroke="#fdc884"></path><path d="M-75.95932884607464,365.0765623128973L16.425074292346835,430.16263637691736L99.09271620912477,372.54879942629486Z" fill="#fed280" stroke="#fed280"></path><path d="M99.09271620912477,372.54879942629486L16.425074292346835,430.16263637691736L192.9007709841244,484.4597774068825Z" fill="#fdc376" stroke="#fdc376"></path><path d="M99.09271620912477,372.54879942629486L192.9007709841244,484.4597774068825L167.2715709800832,304.21824486227706Z" fill="#fecb74" stroke="#fecb74"></path><path d="M167.2715709800832,304.21824486227706L192.9007709841244,484.4597774068825L288.94116756971925,306.86048979870975Z" fill="#fecd6e" stroke="#fecd6e"></path><path d="M288.94116756971925,306.86048979870975L192.9007709841244,484.4597774068825L299.8669990734197,466.62858923198655Z" fill="#fdbd68" stroke="#fdbd68"></path><path d="M288.94116756971925,306.86048979870975L299.8669990734197,466.62858923198655L429.4088741671294,448.5780557245016Z" fill="#fdbc62" stroke="#fdbc62"></path><path d="M288.94116756971925,306.86048979870975L429.4088741671294,448.5780557245016L402.1798490011133,270.7471801387146Z" fill="#ffcb65" stroke="#ffcb65"></path><path d="M402.1798490011133,270.7471801387146L429.4088741671294,448.5780557245016L539.0355121600442,370.17594441538677Z" fill="#febf55" stroke="#febf55"></path><path d="M539.0355121600442,370.17594441538677L429.4088741671294,448.5780557245016L586.722110058181,476.60411812132224Z" fill="#fca94b" stroke="#fca94b"></path><path d="M539.0355121600442,370.17594441538677L586.722110058181,476.60411812132224L667.3568602185696,307.27543603396043Z" fill="#feae42" stroke="#feae42"></path><path d="M667.3568602185696,307.27543603396043L586.722110058181,476.60411812132224L702.413336741738,487.3520774766803Z" fill="#fca03a" stroke="#fca03a"></path><path d="M667.3568602185696,307.27543603396043L702.413336741738,487.3520774766803L805.2643132256344,349.04642092529684Z" fill="#fea531" stroke="#fea531"></path><path d="M805.2643132256344,349.04642092529684L702.413336741738,487.3520774766803L862.4290403001942,482.44156542932615Z" fill="#fa8f28" stroke="#fa8f28"></path><path d="M805.2643132256344,349.04642092529684L862.4290403001942,482.44156542932615L939.2223496874794,432.9709737165831Z" fill="#f68c25" stroke="#f68c25"></path><path d="M805.2643132256344,349.04642092529684L939.2223496874794,432.9709737165831L1026.611390109174,298.0493372422643Z" fill="#f49725" stroke="#f49725"></path><path d="M1026.611390109174,298.0493372422643L939.2223496874794,432.9709737165831L1126.5203771344386,310.8885625516996Z" fill="#ed8e23" stroke="#ed8e23"></path><path d="M1126.5203771344386,310.8885625516996L939.2223496874794,432.9709737165831L1158.4225715207867,508.80579023621976Z" fill="#e8781b" stroke="#e8781b"></path><path d="M1126.5203771344386,310.8885625516996L1158.4225715207867,508.80579023621976L1217.7317711152136,356.3532718690112Z" fill="#e37617" stroke="#e37617"></path><path d="M1217.7317711152136,356.3532718690112L1158.4225715207867,508.80579023621976L1262.7451774221845,480.7482049288228Z" fill="#de6315" stroke="#de6315"></path><path d="M1217.7317711152136,356.3532718690112L1262.7451774221845,480.7482049288228L1392.1011343505234,336.96876980597153Z" fill="#db6917" stroke="#db6917"></path><path d="M1392.1011343505234,336.96876980597153L1262.7451774221845,480.7482049288228L1405.4396567656659,444.85244849696755Z" fill="#d65b16" stroke="#d65b16"></path><path d="M1392.1011343505234,336.96876980597153L1405.4396567656659,444.85244849696755L1519.4390021590516,307.95507268747315Z" fill="#d26218" stroke="#d26218"></path><path d="M1519.4390021590516,307.95507268747315L1405.4396567656659,444.85244849696755L1547.0195764536038,501.4774210797623Z" fill="#cd4f16" stroke="#cd4f16"></path><path d="M1519.4390021590516,307.95507268747315L1547.0195764536038,501.4774210797623L1614.4119125325233,472.3285361076705Z" fill="#c84916" stroke="#c84916"></path><path d="M1519.4390021590516,307.95507268747315L1614.4119125325233,472.3285361076705L1676.2954923673533,319.84395686304197Z" fill="#c75818" stroke="#c75818"></path><path d="M1676.2954923673533,319.84395686304197L1614.4119125325233,472.3285361076705L1658.358146008104,896.8868190678768Z" fill="#be2611" stroke="#be2611"></path><path d="M-95.51826398819685,484.94595383293927L-99.09750238526613,571.4448424731381L16.425074292346835,430.16263637691736Z" fill="#fbb783" stroke="#fbb783"></path><path d="M16.425074292346835,430.16263637691736L-99.09750238526613,571.4448424731381L94.8715071612969,590.9761998802423Z" fill="#f9ad7b" stroke="#f9ad7b"></path><path d="M16.425074292346835,430.16263637691736L94.8715071612969,590.9761998802423L192.9007709841244,484.4597774068825Z" fill="#fab073" stroke="#fab073"></path><path d="M192.9007709841244,484.4597774068825L94.8715071612969,590.9761998802423L176.08399368124083,564.0727064036764Z" fill="#f9a26d" stroke="#f9a26d"></path><path d="M192.9007709841244,484.4597774068825L176.08399368124083,564.0727064036764L299.8669990734197,466.62858923198655Z" fill="#faa968" stroke="#faa968"></path><path d="M299.8669990734197,466.62858923198655L176.08399368124083,564.0727064036764L373.0531367729418,533.786646577064Z" fill="#f9a262" stroke="#f9a262"></path><path d="M299.8669990734197,466.62858923198655L373.0531367729418,533.786646577064L429.4088741671294,448.5780557245016Z" fill="#faa75c" stroke="#faa75c"></path><path d="M429.4088741671294,448.5780557245016L373.0531367729418,533.786646577064L431.66156731080264,581.0324035049416Z" fill="#f99a55" stroke="#f99a55"></path><path d="M429.4088741671294,448.5780557245016L431.66156731080264,581.0324035049416L578.4726284118369,561.1726492643356Z" fill="#f9934c" stroke="#f9934c"></path><path d="M429.4088741671294,448.5780557245016L578.4726284118369,561.1726492643356L586.722110058181,476.60411812132224Z" fill="#fa9746" stroke="#fa9746"></path><path d="M586.722110058181,476.60411812132224L578.4726284118369,561.1726492643356L702.413336741738,487.3520774766803Z" fill="#fa8c3a" stroke="#fa8c3a"></path><path d="M702.413336741738,487.3520774766803L578.4726284118369,561.1726492643356L708.3403747249395,552.6559806289151Z" fill="#f98234" stroke="#f98234"></path><path d="M702.413336741738,487.3520774766803L708.3403747249395,552.6559806289151L862.4290403001942,482.44156542932615Z" fill="#fa8128" stroke="#fa8128"></path><path d="M862.4290403001942,482.44156542932615L708.3403747249395,552.6559806289151L865.5591928376816,595.116320613306Z" fill="#f57223" stroke="#f57223"></path><path d="M862.4290403001942,482.44156542932615L865.5591928376816,595.116320613306L937.9169587604702,566.3948428072035Z" fill="#f0691f" stroke="#f0691f"></path><path d="M862.4290403001942,482.44156542932615L937.9169587604702,566.3948428072035L939.2223496874794,432.9709737165831Z" fill="#f07520" stroke="#f07520"></path><path d="M939.2223496874794,432.9709737165831L937.9169587604702,566.3948428072035L1158.4225715207867,508.80579023621976Z" fill="#ea691b" stroke="#ea691b"></path><path d="M1158.4225715207867,508.80579023621976L937.9169587604702,566.3948428072035L1136.1310735321604,633.2071224763058Z" fill="#e35115" stroke="#e35115"></path><path d="M1158.4225715207867,508.80579023621976L1136.1310735321604,633.2071224763058L1239.32933738688,623.3151386212558Z" fill="#dc4210" stroke="#dc4210"></path><path d="M1158.4225715207867,508.80579023621976L1239.32933738688,623.3151386212558L1262.7451774221845,480.7482049288228Z" fill="#db4b12" stroke="#db4b12"></path><path d="M1262.7451774221845,480.7482049288228L1239.32933738688,623.3151386212558L1349.8703875765204,576.0163780138828Z" fill="#d63e11" stroke="#d63e11"></path><path d="M1262.7451774221845,480.7482049288228L1349.8703875765204,576.0163780138828L1405.4396567656659,444.85244849696755Z" fill="#d44813" stroke="#d44813"></path><path d="M1405.4396567656659,444.85244849696755L1349.8703875765204,576.0163780138828L1446.2690055905841,556.9410236366093Z" fill="#cf3c12" stroke="#cf3c12"></path><path d="M1405.4396567656659,444.85244849696755L1446.2690055905841,556.9410236366093L1547.0195764536038,501.4774210797623Z" fill="#cc3b13" stroke="#cc3b13"></path><path d="M1547.0195764536038,501.4774210797623L1446.2690055905841,556.9410236366093L1585.2591197262518,624.1531766089611Z" fill="#c62611" stroke="#c62611"></path><path d="M1547.0195764536038,501.4774210797623L1585.2591197262518,624.1531766089611L1614.4119125325233,472.3285361076705Z" fill="#c32d12" stroke="#c32d12"></path><path d="M1614.4119125325233,472.3285361076705L1585.2591197262518,624.1531766089611L1590.8350503770635,690.5329298274592Z" fill="#c01d0f" stroke="#c01d0f"></path><path d="M1614.4119125325233,472.3285361076705L1590.8350503770635,690.5329298274592L1658.358146008104,896.8868190678768Z" fill="#bc060c" stroke="#bc060c"></path><path d="M-99.09750238526613,571.4448424731381L-77.77573251863942,696.4646078995429L94.8715071612969,590.9761998802423Z" fill="#f6967b" stroke="#f6967b"></path><path d="M94.8715071612969,590.9761998802423L-77.77573251863942,696.4646078995429L40.40434870868921,737.8458504495211Z" fill="#f48774" stroke="#f48774"></path><path d="M94.8715071612969,590.9761998802423L40.40434870868921,737.8458504495211L211.33749589323997,713.8859950355254Z" fill="#f4816b" stroke="#f4816b"></path><path d="M94.8715071612969,590.9761998802423L211.33749589323997,713.8859950355254L176.08399368124083,564.0727064036764Z" fill="#f68e6a" stroke="#f68e6a"></path><path d="M176.08399368124083,564.0727064036764L211.33749589323997,713.8859950355254L329.59686995018274,666.1924571730196Z" fill="#f58361" stroke="#f58361"></path><path d="M176.08399368124083,564.0727064036764L329.59686995018274,666.1924571730196L373.0531367729418,533.786646577064Z" fill="#f7905f" stroke="#f7905f"></path><path d="M373.0531367729418,533.786646577064L329.59686995018274,666.1924571730196L431.66156731080264,581.0324035049416Z" fill="#f78a57" stroke="#f78a57"></path><path d="M431.66156731080264,581.0324035049416L329.59686995018274,666.1924571730196L480.54797497577965,714.2915904312395Z" fill="#f57850" stroke="#f57850"></path><path d="M431.66156731080264,581.0324035049416L480.54797497577965,714.2915904312395L578.4726284118369,561.1726492643356Z" fill="#f67a46" stroke="#f67a46"></path><path d="M578.4726284118369,561.1726492643356L480.54797497577965,714.2915904312395L613.7853386579081,680.6639469810762Z" fill="#f56d3d" stroke="#f56d3d"></path><path d="M578.4726284118369,561.1726492643356L613.7853386579081,680.6639469810762L708.3403747249395,552.6559806289151Z" fill="#f77435" stroke="#f77435"></path><path d="M708.3403747249395,552.6559806289151L613.7853386579081,680.6639469810762L749.4111510389484,739.219111611601Z" fill="#f5602b" stroke="#f5602b"></path><path d="M708.3403747249395,552.6559806289151L749.4111510389484,739.219111611601L865.5591928376816,595.116320613306Z" fill="#f56022" stroke="#f56022"></path><path d="M865.5591928376816,595.116320613306L749.4111510389484,739.219111611601L886.3604143843986,681.9284351915121Z" fill="#f04f1d" stroke="#f04f1d"></path><path d="M865.5591928376816,595.116320613306L886.3604143843986,681.9284351915121L937.9169587604702,566.3948428072035Z" fill="#ee571c" stroke="#ee571c"></path><path d="M937.9169587604702,566.3948428072035L886.3604143843986,681.9284351915121L1007.8972029546276,684.6692799613811Z" fill="#e94b19" stroke="#e94b19"></path><path d="M937.9169587604702,566.3948428072035L1007.8972029546276,684.6692799613811L1136.1310735321604,633.2071224763058Z" fill="#e54715" stroke="#e54715"></path><path d="M1136.1310735321604,633.2071224763058L1007.8972029546276,684.6692799613811L1060.6664718617685,738.0229823011905Z" fill="#e03411" stroke="#e03411"></path><path d="M1136.1310735321604,633.2071224763058L1060.6664718617685,738.0229823011905L1276.2484035408124,747.3333725961857Z" fill="#d9250b" stroke="#d9250b"></path><path d="M1136.1310735321604,633.2071224763058L1276.2484035408124,747.3333725961857L1239.32933738688,623.3151386212558Z" fill="#d7290c" stroke="#d7290c"></path><path d="M1239.32933738688,623.3151386212558L1276.2484035408124,747.3333725961857L1349.8703875765204,576.0163780138828Z" fill="#d2270d" stroke="#d2270d"></path><path d="M1349.8703875765204,576.0163780138828L1276.2484035408124,747.3333725961857L1390.0617230986245,752.4344861297868Z" fill="#ce170c" stroke="#ce170c"></path><path d="M1349.8703875765204,576.0163780138828L1390.0617230986245,752.4344861297868L1446.2690055905841,556.9410236366093Z" fill="#cc220e" stroke="#cc220e"></path><path d="M1446.2690055905841,556.9410236366093L1390.0617230986245,752.4344861297868L1443.5743695218116,753.5314756422304Z" fill="#c80f0c" stroke="#c80f0c"></path><path d="M1446.2690055905841,556.9410236366093L1443.5743695218116,753.5314756422304L1585.2591197262518,624.1531766089611Z" fill="#c5130d" stroke="#c5130d"></path><path d="M1585.2591197262518,624.1531766089611L1443.5743695218116,753.5314756422304L1590.8350503770635,690.5329298274592Z" fill="#c0050c" stroke="#c0050c"></path><path d="M-77.77573251863942,696.4646078995429L-25.543067026883364,887.8663417557254L47.72676583379507,800.2273627067916Z" fill="#f08073" stroke="#f08073"></path><path d="M-77.77573251863942,696.4646078995429L47.72676583379507,800.2273627067916L40.40434870868921,737.8458504495211Z" fill="#f28073" stroke="#f28073"></path><path d="M40.40434870868921,737.8458504495211L47.72676583379507,800.2273627067916L211.33749589323997,713.8859950355254Z" fill="#f27b6a" stroke="#f27b6a"></path><path d="M211.33749589323997,713.8859950355254L47.72676583379507,800.2273627067916L246.63071411894634,806.2381095858291Z" fill="#f17763" stroke="#f17763"></path><path d="M211.33749589323997,713.8859950355254L246.63071411894634,806.2381095858291L329.59686995018274,666.1924571730196Z" fill="#f2735c" stroke="#f2735c"></path><path d="M329.59686995018274,666.1924571730196L246.63071411894634,806.2381095858291L337.3461874178611,821.9648729916662Z" fill="#f17157" stroke="#f17157"></path><path d="M329.59686995018274,666.1924571730196L337.3461874178611,821.9648729916662L480.54797497577965,714.2915904312395Z" fill="#f26d51" stroke="#f26d51"></path><path d="M480.54797497577965,714.2915904312395L337.3461874178611,821.9648729916662L410.1363839721307,888.8111212779768Z" fill="#ef6a4a" stroke="#ef6a4a"></path><path d="M480.54797497577965,714.2915904312395L410.1363839721307,888.8111212779768L541.7765853577293,842.6469553844072Z" fill="#ef6541" stroke="#ef6541"></path><path d="M480.54797497577965,714.2915904312395L541.7765853577293,842.6469553844072L613.7853386579081,680.6639469810762Z" fill="#f25f3b" stroke="#f25f3b"></path><path d="M613.7853386579081,680.6639469810762L541.7765853577293,842.6469553844072L728.0697458563372,851.1565497750416Z" fill="#f0582e" stroke="#f0582e"></path><path d="M613.7853386579081,680.6639469810762L728.0697458563372,851.1565497750416L749.4111510389484,739.219111611601Z" fill="#f15226" stroke="#f15226"></path><path d="M749.4111510389484,739.219111611601L728.0697458563372,851.1565497750416L803.1560298474506,853.4021898545325Z" fill="#ef4d1c" stroke="#ef4d1c"></path><path d="M749.4111510389484,739.219111611601L803.1560298474506,853.4021898545325L886.3604143843986,681.9284351915121Z" fill="#ee481b" stroke="#ee481b"></path><path d="M886.3604143843986,681.9284351915121L803.1560298474506,853.4021898545325L925.1396737317555,891.1286169011146Z" fill="#e84216" stroke="#e84216"></path><path d="M886.3604143843986,681.9284351915121L925.1396737317555,891.1286169011146L1007.8972029546276,684.6692799613811Z" fill="#e63b15" stroke="#e63b15"></path><path d="M1007.8972029546276,684.6692799613811L925.1396737317555,891.1286169011146L1060.6664718617685,738.0229823011905Z" fill="#e13511" stroke="#e13511"></path><path d="M1060.6664718617685,738.0229823011905L925.1396737317555,891.1286169011146L1066.515947165899,856.4648796082474Z" fill="#de330e" stroke="#de330e"></path><path d="M1060.6664718617685,738.0229823011905L1066.515947165899,856.4648796082474L1279.9648023280315,798.8708802964538Z" fill="#d72709" stroke="#d72709"></path><path d="M1060.6664718617685,738.0229823011905L1279.9648023280315,798.8708802964538L1276.2484035408124,747.3333725961857Z" fill="#d42009" stroke="#d42009"></path><path d="M1276.2484035408124,747.3333725961857L1279.9648023280315,798.8708802964538L1390.0617230986245,752.4344861297868Z" fill="#cd1509" stroke="#cd1509"></path><path d="M1390.0617230986245,752.4344861297868L1279.9648023280315,798.8708802964538L1402.1206940012053,868.3173712296411Z" fill="#c91107" stroke="#c91107"></path><path d="M1390.0617230986245,752.4344861297868L1402.1206940012053,868.3173712296411L1456.9894535955973,839.8911964218132Z" fill="#c50b06" stroke="#c50b06"></path><path d="M1390.0617230986245,752.4344861297868L1456.9894535955973,839.8911964218132L1443.5743695218116,753.5314756422304Z" fill="#c50a08" stroke="#c50a08"></path><path d="M1443.5743695218116,753.5314756422304L1456.9894535955973,839.8911964218132L1590.8350503770635,690.5329298274592Z" fill="#c10309" stroke="#c10309"></path><path d="M1590.8350503770635,690.5329298274592L1456.9894535955973,839.8911964218132L1658.358146008104,896.8868190678768Z" fill="#bb0007" stroke="#bb0007"></path><path d="M-25.543067026883364,887.8663417557254L1658.358146008104,896.8868190678768L410.1363839721307,888.8111212779768Z" fill="#ed5423" stroke="#ed5423"></path><path d="M-25.543067026883364,887.8663417557254L410.1363839721307,888.8111212779768L246.63071411894634,806.2381095858291Z" fill="#ee755b" stroke="#ee755b"></path><path d="M-25.543067026883364,887.8663417557254L246.63071411894634,806.2381095858291L47.72676583379507,800.2273627067916Z" fill="#ef7b68" stroke="#ef7b68"></path><path d="M246.63071411894634,806.2381095858291L410.1363839721307,888.8111212779768L337.3461874178611,821.9648729916662Z" fill="#ee6f51" stroke="#ee6f51"></path><path d="M410.1363839721307,888.8111212779768L1658.358146008104,896.8868190678768L925.1396737317555,891.1286169011146Z" fill="#dd350c" stroke="#dd350c"></path><path d="M410.1363839721307,888.8111212779768L925.1396737317555,891.1286169011146L728.0697458563372,851.1565497750416Z" fill="#ed5323" stroke="#ed5323"></path><path d="M410.1363839721307,888.8111212779768L728.0697458563372,851.1565497750416L541.7765853577293,842.6469553844072Z" fill="#ee5e34" stroke="#ee5e34"></path><path d="M728.0697458563372,851.1565497750416L925.1396737317555,891.1286169011146L803.1560298474506,853.4021898545325Z" fill="#ea4716" stroke="#ea4716"></path><path d="M925.1396737317555,891.1286169011146L1658.358146008104,896.8868190678768L1402.1206940012053,868.3173712296411Z" fill="#c81404" stroke="#c81404"></path><path d="M925.1396737317555,891.1286169011146L1402.1206940012053,868.3173712296411L1066.515947165899,856.4648796082474Z" fill="#d52806" stroke="#d52806"></path><path d="M1066.515947165899,856.4648796082474L1402.1206940012053,868.3173712296411L1279.9648023280315,798.8708802964538Z" fill="#ce1c06" stroke="#ce1c06"></path><path d="M1402.1206940012053,868.3173712296411L1658.358146008104,896.8868190678768L1456.9894535955973,839.8911964218132Z" fill="#bd0205" stroke="#bd0205"></path></g></svg>