<?xml version="1.0" standalone="no"?><!DOCTYPE svg PUBLIC "-//W3C//DTD SVG 1.1//EN" "http://www.w3.org/Graphics/SVG/1.1/DTD/svg11.dtd"><svg width="100%" height="100%" viewBox="0 0 375 435" version="1.1" xmlns="http://www.w3.org/2000/svg" xmlns:xlink="http://www.w3.org/1999/xlink" xml:space="preserve" style="fill-rule:evenodd;clip-rule:evenodd;stroke-linejoin:round;stroke-miterlimit:1.41421;"><path d="M255.508,321.456c0,0 -58.283,37.083 -72.722,79.587c-0.916,2.698 69.487,-50.74 72.722,-79.587Z" style="fill:#fff;"/><ellipse cx="198.732" cy="238.763" rx="69.193" ry="72.014" style="fill:none;stroke-width:2.25px;stroke:#fff;"/><circle cx="168.739" cy="146.733" r="89.274" style="fill:none;stroke-width:2.25px;stroke:#fff;"/><ellipse cx="221.649" cy="320.723" rx="53.754" ry="53.104" style="fill:none;stroke-width:2.25px;stroke:#fff;"/><circle cx="145.925" cy="59.402" r="106.097" style="fill:none;stroke-width:2.25px;stroke:#fff;"/><path d="M199.696,337.582c0,0 69.028,-2.71 105.102,24.004c2.29,1.696 -86.014,-2.134 -105.102,-24.004Z" style="fill:#fff;"/><g><path d="M169.337,227.298l-24.348,-93.37l52.688,-15.586l2.713,10.407l-31.632,9.357l8.116,31.124l21.154,-6.258l2.689,10.309l-21.154,6.258l8.116,31.123l31.632,-9.358l2.714,10.407l-52.688,15.587Z" style="fill:#ea2221;fill-rule:nonzero;stroke-width:1.5px;stroke:#fff;"/><path d="M143.242,127.584l-17.912,-72.95c-1.399,-5.697 -0.682,-11.122 2.15,-16.275c2.833,-5.154 6.924,-8.476 12.272,-9.966l19.621,-5.465c5.349,-1.49 10.445,-0.718 15.287,2.315c4.843,3.033 7.96,7.382 9.351,13.046l17.912,72.95l-19.53,5.44l-10.239,-41.7l-19.621,5.466l10.239,41.699l-19.53,5.44ZM149.991,70.093l19.621,-5.466l-5.131,-20.898c-0.695,-2.832 -2.263,-4.995 -4.704,-6.489c-2.44,-1.494 -4.99,-1.871 -7.649,-1.13c-2.689,0.749 -4.747,2.409 -6.173,4.98c-1.426,2.571 -1.791,5.272 -1.095,8.104l5.131,20.899Z" style="fill:#ea2221;fill-rule:nonzero;stroke-width:1.5px;stroke:#fff;"/><path d="M193.434,326.875l-24.124,-93.435l39.019,-11.429c5.331,-1.561 10.435,-0.858 15.313,2.11c4.878,2.969 8.046,7.275 9.504,12.92l1.457,5.645c1.198,4.64 0.859,9.546 -1.016,14.719c-1.875,5.173 -6.316,8.785 -13.321,10.837l9.686,-2.837c2.68,-0.785 5.244,-0.437 7.691,1.045c2.446,1.482 4.038,3.651 4.775,6.505l9.499,36.791l-19.464,5.701l-8.041,-31.145c-0.737,-2.855 -2.337,-5.022 -4.799,-6.499c-2.462,-1.477 -5.018,-1.828 -7.668,-1.052l-9.777,2.864l10.73,41.559l-19.464,5.701ZM199.504,269.298l9.778,-2.864c2.65,-0.776 4.676,-2.477 6.078,-5.104c1.402,-2.626 1.739,-5.351 1.01,-8.174l-2.688,-10.414c-0.729,-2.822 -2.322,-4.964 -4.78,-6.425c-2.458,-1.461 -5.012,-1.804 -7.662,-1.028l-9.777,2.864l8.041,31.145Z" style="fill:#ea2221;fill-rule:nonzero;stroke-width:1.5px;stroke:#fff;"/></g></svg>