<?xml version="1.0" encoding="utf-8"?>
<!-- Generator: Adobe Illustrator 13.0.0, SVG Export Plug-In . SVG Version: 6.00 Build 14948)  -->
<!DOCTYPE svg PUBLIC "-//W3C//DTD SVG 1.1//EN" "http://www.w3.org/Graphics/SVG/1.1/DTD/svg11.dtd">
<svg version="1.1" id="Layer_1" xmlns="http://www.w3.org/2000/svg" xmlns:xlink="http://www.w3.org/1999/xlink" x="0px" y="0px"
	 width="1170px" height="700px" viewBox="0 0 1170 700" enable-background="new 0 0 1170 700" xml:space="preserve">
<g id="Layer_1_2_">
	<g id="Layer_2">
		
			<linearGradient id="SVGID_1_" gradientUnits="userSpaceOnUse" x1="927" y1="467.4326" x2="927" y2="793" gradientTransform="matrix(1 0 0 1 -342 -93)">
			<stop  offset="0" style="stop-color:#F6D07E"/>
			<stop  offset="1" style="stop-color:#000000"/>
		</linearGradient>
		<rect y="-75.5" fill="url(#SVGID_1_)" width="1170" height="700"/>
	</g>
	<g id="Layer_1_1_">
		<g>
			<path fill="#FBFAFC" stroke="#FBFAFC" d="M-58.632,29.065l-30.78,220.89l124.845-69.893L-58.632,29.065z"/>
			<path fill="#F7F6FA" stroke="#F7F6FA" d="M-58.632,29.065l94.065,150.998l70.095-158.388L-58.632,29.065z"/>
			<path fill="#F1F1F8" stroke="#F1F1F8" d="M105.529,21.674L35.434,180.062l162.198,42.362L105.529,21.674z"/>
			<path fill="#EDEDF5" stroke="#EDEDF5" d="M105.529,21.674l92.103,200.75l48.711-141.063L105.529,21.674z"/>
			<path fill="#E7E7F2" stroke="#E7E7F2" d="M246.343,81.361l-48.711,141.063l157.48-71.451L246.343,81.361z"/>
			<path fill="#DCDDED" stroke="#DCDDED" d="M331.595,14.278l23.521,136.695l163.843-76.816L331.595,14.278z"/>
			<path fill="#D8D8EA" stroke="#D8D8EA" d="M518.955,74.157l-163.843,76.816l129.229,38.676L518.955,74.157z"/>
			<path fill="#D1D0E5" stroke="#D1D0E5" d="M518.955,74.157L484.343,189.65l157.396,3.636L518.955,74.157z"/>
			<path fill="#CDCBE3" stroke="#CDCBE3" d="M518.955,74.157l122.781,119.128L625.799,60.093L518.955,74.157z"/>
			<path fill="#C4C1DE" stroke="#C4C1DE" d="M625.799,60.093l15.938,133.192l124.88-101.537L625.799,60.093z"/>
			<path fill="#BEBADA" stroke="#BEBADA" d="M766.617,91.748L641.736,193.285l164.234-50.066L766.617,91.748z"/>
			<path fill="#EAE8FC" stroke="#EAE8FC" d="M-89.412,249.955l-30.571,281.611l71.521-154.734L-89.412,249.955z"/>
			<path fill="#F1F0FC" stroke="#F1F0FC" d="M-89.412,249.955l40.951,126.877l90.451-82.95L-89.412,249.955z"/>
			<path fill="#F8F7FB" stroke="#F8F7FB" d="M-89.412,249.955L41.99,293.882l-6.557-113.82L-89.412,249.955z"/>
			<path fill="#F3F2F8" stroke="#F3F2F8" d="M35.434,180.062l6.557,113.82l155.642-71.458L35.434,180.062z"/>
			<path fill="#E7E7F6" stroke="#E7E7F6" d="M197.632,222.424L41.99,293.882l198.444,82.062L197.632,222.424z"/>
			<path fill="#DCDDF3" stroke="#DCDDF3" d="M197.632,222.424l42.802,153.52l79.258,11.013L197.632,222.424z"/>
			<path fill="#E3E3F1" stroke="#E3E3F1" d="M197.632,222.424l122.062,164.529l35.42-235.98L197.632,222.424z"/>
			<path fill="#D8D9EE" stroke="#D8D9EE" d="M355.112,150.973l-35.42,235.98l170.598-87.101L355.112,150.973z"/>
			<path fill="#D9D9EB" stroke="#D9D9EB" d="M355.112,150.973l135.178,148.88l-5.947-110.203L355.112,150.973z"/>
			<path fill="#D2D0E6" stroke="#D2D0E6" d="M484.343,189.649l5.947,110.203l151.446-106.567L484.343,189.649z"/>
			<path fill="#CAC8E4" stroke="#CAC8E4" d="M641.736,193.285L490.29,299.853l127.04,19.284L641.736,193.285z"/>
			<path fill="#C3C0DD" stroke="#C3C0DD" d="M641.736,193.285L617.33,319.136l188.645-175.917L641.736,193.285z"/>
			<path fill="#BEBADA" stroke="#BEBADA" d="M805.975,143.219L617.33,319.136l250.81,64.206L805.975,143.219z"/>
			<path fill="#CAC8E4" stroke="#CAC8E4" d="M805.975,143.219l62.165,240.123l42.862-83.501L805.975,143.219z"/>
			<path fill="#BEBADA" stroke="#BEBADA" d="M809.5,146.5l101.502,153.341l229.814,8.239L809.5,146.5z"/>
			<path fill="#DAD7F5" stroke="#DAD7F5" d="M-48.461,376.832l-71.521,154.734l245.919-65.822L-48.461,376.832z"/>
			<path fill="#E3E2F8" stroke="#E3E2F8" d="M-48.461,376.832l174.397,88.912L41.99,293.882L-48.461,376.832z"/>
			<path fill="#DDDDF5" stroke="#DDDDF5" d="M41.99,293.882l83.946,171.862l114.498-89.801L41.99,293.882z"/>
			<path fill="#CDCCEE" stroke="#CDCCEE" d="M240.434,375.943l-114.498,89.801l109.114,49.922L240.434,375.943z"/>
			<path fill="#CCCCED" stroke="#CCCCED" d="M240.434,375.943l-5.384,139.723l84.646-128.713L240.434,375.943z"/>
			<path fill="#C1BFE8" stroke="#C1BFE8" d="M319.692,386.953L235.05,515.666l99.91,25.82L319.692,386.953z"/>
			<path fill="#BEBDE7" stroke="#BEBDE7" d="M319.692,386.953l15.268,154.533l142.821-76.074L319.692,386.953z"/>
			<path fill="#C6C6E9" stroke="#C6C6E9" d="M319.692,386.953l158.089,78.459l12.509-165.56L319.692,386.953z"/>
			<path fill="#C2C1E6" stroke="#C2C1E6" d="M490.29,299.853l-12.509,165.56L617.33,319.136L490.29,299.853z"/>
			<path fill="#B0ADDD" stroke="#B0ADDD" d="M617.33,319.136L477.781,465.412l245.512,50.449L617.33,319.136z"/>
			<path fill="#A59FD7" stroke="#A59FD7" d="M617.33,319.136l105.963,196.729l90.227-57.541L617.33,319.136z"/>
			<path fill="#BEBADA" stroke="#BEBADA" d="M617.33,319.136L813.52,458.32l54.62-74.979L617.33,319.136z"/>
			<path fill="#CAC8E4" stroke="#CAC8E4" d="M868.14,383.342l-54.62,74.979l213.773-2.283L868.14,383.342z"/>
			<path fill="#C3C0DD" stroke="#C3C0DD" d="M868.14,383.342l159.153,72.695L911.002,299.841L868.14,383.342z"/>
			<path fill="#C4C1DE" stroke="#C4C1DE" d="M911.002,299.841l116.291,156.196l113.523-147.957L911.002,299.841z"/>
			<path fill="#CAC8E4" stroke="#CAC8E4" d="M1140.816,308.08l-113.523,147.957l124.854,81.176L1140.816,308.08z"/>
			<path fill="#B0ADDD" stroke="#B0ADDD" d="M1140.816,308.08l11.33,229.133L1205.5,420.5L1140.816,308.08z"/>
			<path fill="#A59FD7" stroke="#A59FD7" d="M1205.501,421.167l-53.354,116.046l138.479-1.604L1205.501,421.167z"/>
			<path fill="#AD8CCF" stroke="#AD8CCF" d="M-119.982,531.566l10.683,363.633l4.588-125.324L-119.982,531.566z"/>
			<path fill="#BCA9DE" stroke="#BCA9DE" d="M-119.982,531.566l15.271,238.309l5.98-132.652L-119.982,531.566z"/>
			<path fill="#BFB4E3" stroke="#BFB4E3" d="M-119.982,531.566l21.251,105.652L87.5,644.399L-119.982,531.566z"/>
			<path fill="#C5C0E9" stroke="#C5C0E9" d="M-119.982,531.566L87.5,644.399l38.437-178.655L-119.982,531.566z"/>
			<path fill="#BFBAE6" stroke="#BFBAE6" d="M125.937,465.744L87.5,644.399l147.55-128.733L125.937,465.744z"/>
			<path fill="#B1A8DD" stroke="#B1A8DD" d="M235.05,515.666L87.5,644.399l127.421,7.31L235.05,515.666z"/>
			<path fill="#B1ACDF" stroke="#B1ACDF" d="M235.05,515.666l-20.129,136.043L334.96,541.486L235.05,515.666z"/>
			<path fill="#A498D5" stroke="#A498D5" d="M334.96,541.486L214.921,651.709l148.854,25.82L334.96,541.486z"/>
			<path fill="#9E92D2" stroke="#9E92D2" d="M334.96,541.486l28.815,136.043l99.521-29.774L334.96,541.486z"/>
			<path fill="#A9A4DA" stroke="#A9A4DA" d="M334.96,541.486l128.337,106.269l14.484-182.343L334.96,541.486z"/>
			<path fill="#A09AD4" stroke="#A09AD4" d="M477.781,465.412l-14.484,182.343l259.996-131.894L477.781,465.412z"/>
			<path fill="#8C7FC7" stroke="#8C7FC7" d="M723.293,515.861L463.297,647.755l249.552,14.312L723.293,515.861z"/>
			<path fill="#7D6DBE" stroke="#7D6DBE" d="M723.293,515.861l-10.444,146.205l157.653-1.2L723.293,515.861z"/>
			<path fill="#877BC5" stroke="#877BC5" d="M723.293,515.861l147.209,145.005L813.52,458.32L723.293,515.861z"/>
			<path fill="#B0ADDD" stroke="#B0ADDD" d="M813.52,458.32l56.982,202.546l73.175-64.694L813.52,458.32z"/>
			<path fill="#C4C1DE" stroke="#C4C1DE" d="M813.52,458.32l130.157,137.852l83.616-140.135L813.52,458.32z"/>
			<path fill="#CDCBE3" stroke="#CDCBE3" d="M1027.293,456.037l-83.616,140.135l131.752,33.539L1027.293,456.037z"/>
			<path fill="#D1D0E5" stroke="#D1D0E5" d="M1027.293,456.037l48.136,173.674l76.718-92.498L1027.293,456.037z"/>
			<path fill="#A09AD4" stroke="#A09AD4" d="M1152.146,537.213l-76.722,92.498l151.46-2.975L1152.146,537.213z"/>
			<path fill="#877BC5" stroke="#877BC5" d="M1152.146,537.213l74.738,89.523l63.736-91.131L1152.146,537.213z"/>
			<path fill="#4C278D" stroke="#4C278D" d="M1290.625,535.605l-63.736,91.131l-6.71,188.398L1290.625,535.605z"/>
			<path fill="#3C077B" stroke="#3C077B" d="M1290.625,535.605l-70.446,279.529l41.388,91.775L1290.625,535.605z"/>
			<path fill="#B199D6" stroke="#B199D6" d="M-98.731,637.223l-5.98,132.652L87.5,644.399L-98.731,637.223z"/>
			<path fill="#A381C9" stroke="#A381C9" d="M87.5,644.399l-192.211,125.476l194.765,39.87L87.5,644.399z"/>
			<path fill="#A389CD" stroke="#A389CD" d="M87.5,644.399l2.553,165.346l124.868-158.036L87.5,644.399z"/>
			<path fill="#9772C2" stroke="#9772C2" d="M214.921,651.709L90.053,809.745l87.305,13.222L214.921,651.709z"/>
			<path fill="#987CC6" stroke="#987CC6" d="M214.921,651.709l-37.563,171.258l186.417-145.438L214.921,651.709z"/>
			<path fill="#8A64BA" stroke="#8A64BA" d="M363.775,677.529L177.358,822.967l236-10.407L363.775,677.529z"/>
			<path fill="#8D71C0" stroke="#8D71C0" d="M363.775,677.529l49.582,135.026l49.938-164.805L363.775,677.529z"/>
			<path fill="#815CB6" stroke="#815CB6" d="M463.297,647.755L413.357,812.56l121.229-2.636L463.297,647.755z"/>
			<path fill="#7F5DB6" stroke="#7F5DB6" d="M463.297,647.755l71.291,162.169l92.581-54.634L463.297,647.755z"/>
			<path fill="#8268BB" stroke="#8268BB" d="M463.297,647.755L627.169,755.29l85.68-93.224L463.297,647.755z"/>
			<path fill="#6F4DAE" stroke="#6F4DAE" d="M712.849,662.066l-85.68,93.224l200.229-2.987L712.849,662.066z"/>
			<path fill="#877BC5" stroke="#877BC5" d="M712.849,662.066L827.4,752.3l43.104-91.437L712.849,662.066z"/>
			<path fill="#7D6DBE" stroke="#7D6DBE" d="M870.502,660.866l-43.104,91.437l159.209,10.713L870.502,660.866z"/>
			<path fill="#877BC5" stroke="#877BC5" d="M870.502,660.866l116.104,102.146L943.675,596.17L870.502,660.866z"/>
			<path fill="#7D6DBE" stroke="#7D6DBE" d="M943.677,596.172l42.934,166.844l88.818-133.305L943.677,596.172z"/>
			<path fill="#877BC5" stroke="#877BC5" d="M1075.429,629.711L986.61,763.016l101.427-7.84L1075.429,629.711z"/>
			<path fill="#A59FD7" stroke="#A59FD7" d="M1075.429,629.711l12.604,125.465l138.854-128.438L1075.429,629.711z"/>
			<path fill="#460E86" stroke="#460E86" d="M1226.889,626.736l-138.854,128.438l132.146,59.963L1226.889,626.736z"/>
			<path fill="#967BB9" stroke="#967BB9" d="M-104.712,769.875l-4.588,125.324l150.9-7.656L-104.712,769.875z"/>
			<path fill="#9777BC" stroke="#9777BC" d="M-104.712,769.875L41.6,887.543l48.453-77.798L-104.712,769.875z"/>
			<path fill="#8E72B6" stroke="#8E72B6" d="M90.053,809.745L41.6,887.543l135.758-64.576L90.053,809.745z"/>
			<path fill="#8270AA" stroke="#8270AA" d="M177.358,822.967L41.6,887.543l157.073,99.518L177.358,822.967z"/>
			<path fill="#7869A4" stroke="#7869A4" d="M177.358,822.967l21.315,164.094l183.067-68.089L177.358,822.967z"/>
			<path fill="#7C63AC" stroke="#7C63AC" d="M177.358,822.967l204.382,96.005l31.617-106.412L177.358,822.967z"/>
			<path fill="#7459A7" stroke="#7459A7" d="M413.357,812.56L381.74,918.972l152.848-109.048L413.357,812.56z"/>
			<path fill="#69559D" stroke="#69559D" d="M534.588,809.924L381.74,918.972l186.479,23.575L534.588,809.924z"/>
			<path fill="#6B4DA2" stroke="#6B4DA2" d="M534.588,809.924l33.632,132.623l58.949-187.257L534.588,809.924z"/>
			<path fill="#5F4A96" stroke="#5F4A96" d="M627.169,755.29L568.22,942.547l64.104,44.629L627.169,755.29z"/>
			<path fill="#543E90" stroke="#543E90" d="M627.169,755.29l5.152,231.886l215.55-36.314L627.169,755.29z"/>
			<path fill="#5A379A" stroke="#5A379A" d="M627.169,755.29l220.702,195.567L827.396,752.3L627.169,755.29z"/>
			<path fill="#462386" stroke="#462386" d="M827.396,752.303l20.475,198.559l112.916-5.854L827.396,752.303z"/>
			<path fill="#4D1B8D" stroke="#4D1B8D" d="M827.396,752.303l133.391,192.705l25.818-181.992L827.396,752.303z"/>
			<path fill="#3A0C79" stroke="#3A0C79" d="M986.606,763.016l-25.819,181.992l136.04-0.438L986.606,763.016z"/>
			<path fill="#410481" stroke="#410481" d="M986.606,763.016l110.221,181.557l-8.794-189.396L986.606,763.016z"/>
			<path fill="#380077" stroke="#380077" d="M1088.033,755.176l8.794,189.396l123.352-129.434L1088.033,755.176z"/>
			<path fill="#2B0069" stroke="#2B0069" d="M1220.179,815.139L1096.827,944.57l164.739-37.654L1220.179,815.139z"/>
			<path fill="#8475A9" stroke="#8475A9" d="M-109.3,895.199l307.973,91.857L41.6,887.543L-109.3,895.199z"/>
			<path fill="#635D95" stroke="#635D95" d="M198.673,987.061l433.648,0.115L381.74,918.972L198.673,987.061z"/>
			<path fill="#5C5291" stroke="#5C5291" d="M381.74,918.972l250.581,68.204l-64.104-44.629L381.74,918.972z"/>
			<path fill="#382077" stroke="#382077" d="M632.321,987.176l464.506-42.604l-136.04,0.438L632.321,987.176z"/>
			<path fill="#3F2F7D" stroke="#3F2F7D" d="M632.321,987.176l328.466-42.168l-112.916,5.854L632.321,987.176z"/>
		</g>
		<path fill="#C3C0DD" stroke="#C3C0DD" d="M916.074,199.598l224.76,108.236l-20.771-80.237L916.074,199.598z"/>
	</g>
	<polygon fill="#F1F1F8" stroke="#F1F1F8" points="355.112,150.973 331.595,14.278 209.5,65.833 246.343,81.361 	"/>
</g>
</svg>
