<?xml version="1.0" encoding="utf-8"?>
<!-- Generator: Adobe Illustrator 13.0.0, SVG Export Plug-In . SVG Version: 6.00 Build 14948)  -->
<!DOCTYPE svg PUBLIC "-//W3C//DTD SVG 1.1//EN" "http://www.w3.org/Graphics/SVG/1.1/DTD/svg11.dtd">
<svg version="1.1" id="Layer_1" xmlns="http://www.w3.org/2000/svg" xmlns:xlink="http://www.w3.org/1999/xlink" x="0px" y="0px"
	 width="1528px" height="711px" viewBox="0 0 1528 711" enable-background="new 0 0 1528 711" xml:space="preserve">
<g>
	<path fill="#FFFFDF" stroke="#FFFFDF" d="M6.863,790.553L-90.07,624.127L18.713,948.748L6.863,790.553z"/>
	<path fill="#FFFEE7" stroke="#FFFEE7" d="M146.021,908.561L6.862,790.555l11.851,158.193L146.021,908.561z"/>
	<path fill="#FFF9DE" stroke="#FFF9DE" d="M318.001,924.988l-171.98-16.428L18.713,948.748L318.001,924.988z"/>
	<path fill="#FFFDDE" stroke="#FFFDDE" d="M76.534,736.461L6.862,790.555l139.159,118.006L76.534,736.461z"/>
	<path fill="#FFF9D9" stroke="#FFF9D9" d="M244.548,794.592L76.534,736.461l69.487,172.1L244.548,794.592z"/>
	<path fill="#FFF6D8" stroke="#FFF6D8" d="M266.62,875.344l-22.073-80.752l-98.527,113.969L266.62,875.344z"/>
	<path fill="#FFF5D7" stroke="#FFF5D7" d="M318.001,924.988l-51.381-49.645l-120.6,33.217L318.001,924.988z"/>
	<path fill="#FFF3D0" stroke="#FFF3D0" d="M298.839,759.582l-54.292,35.01l22.073,80.752L298.839,759.582z"/>
	<path fill="#FFF2D1" stroke="#FFF2D1" d="M317.999,924.988l-19.16-165.408L266.62,875.344L317.999,924.988z"/>
	<path fill="#FFEFCB" stroke="#FFEFCB" d="M471.687,831.248L298.84,759.582l19.161,165.406L471.687,831.248z"/>
	<path fill="#FFE8C0" stroke="#FFE8C0" d="M597.553,824.67l-125.867,6.578l-153.686,93.74L597.553,824.67z"/>
	<path fill="#FFDAAA" stroke="#FFDAAA" d="M972.298,860.986L597.553,824.67L318.001,924.988L972.298,860.986z"/>
	<path fill="#FFEBBF" stroke="#FFEBBF" d="M501.996,772.688L298.84,759.582l172.847,71.666L501.996,772.688z"/>
	<path fill="#FFE3B7" stroke="#FFE3B7" d="M597.553,824.67l-95.559-51.984l-30.308,58.562L597.553,824.67z"/>
	<path fill="#FFDEAE" stroke="#FFDEAE" d="M618.189,757.387l-116.194,15.299l95.559,51.984L618.189,757.387z"/>
	<path fill="#FFD7A4" stroke="#FFD7A4" d="M783.873,791.18l-165.685-33.793l-20.635,67.283L783.873,791.18z"/>
	<path fill="#FFCD95" stroke="#FFCD95" d="M972.299,860.986L783.873,791.18l-186.32,33.49L972.299,860.986z"/>
	<path fill="#FFD498" stroke="#FFD498" d="M684.234,703.303l-66.045,54.084l165.685,33.795L684.234,703.303z"/>
	<path fill="#FFCE85" stroke="#FFCE85" d="M832.794,622.732l-148.561,80.57l99.64,87.879L832.794,622.732z"/>
	<path fill="#FBC77D" stroke="#FBC77D" d="M887.551,650.17l-54.756-27.438l-48.922,168.449L887.551,650.17z"/>
	<path fill="#FAC48C" stroke="#FAC48C" d="M921.418,819.051L887.551,650.17L783.873,791.182L921.418,819.051z"/>
	<path fill="#F8C28F" stroke="#F8C28F" d="M972.298,860.986l-50.88-41.938l-137.545-27.867L972.298,860.986z"/>
	<path fill="#F5BE83" stroke="#F5BE83" d="M974.395,705.02l-86.844-54.85l33.867,168.879L974.395,705.02z"/>
	<path fill="#F4BC8C" stroke="#F4BC8C" d="M972.298,860.986l2.097-155.967l-52.977,114.029L972.298,860.986z"/>
	<path fill="#EFB488" stroke="#EFB488" d="M1146.649,815.77L974.395,705.02l-2.097,155.967L1146.649,815.77z"/>
	<path fill="#EAAC84" stroke="#EAAC84" d="M1211.568,820.902l-64.919-5.133l-174.351,45.217L1211.568,820.902z"/>
	<path fill="#E09D80" stroke="#E09D80" d="M1619.145,769.242l-407.577,51.66l-239.27,40.084L1619.145,769.242z"/>
	<path fill="#EBAE7E" stroke="#EBAE7E" d="M1119.082,644.684L974.396,705.02l172.253,110.75L1119.082,644.684z"/>
	<path fill="#E6A676" stroke="#E6A676" d="M1227.59,637.289l-108.508,7.395l27.566,171.086L1227.59,637.289z"/>
	<path fill="#E4A380" stroke="#E4A380" d="M1211.568,820.902l16.023-183.613l-80.942,178.48L1211.568,820.902z"/>
	<path fill="#DF9C80" stroke="#DF9C80" d="M1367.921,780.768l-140.33-143.48l-16.023,183.615L1367.921,780.768z"/>
	<path fill="#D78F80" stroke="#D78F80" d="M1619.146,769.24l-251.225,11.527l-156.354,40.135L1619.146,769.24z"/>
	<path fill="#DB9574" stroke="#DB9574" d="M1382.725,620.781l-155.134,16.506l140.33,143.48L1382.725,620.781z"/>
	<path fill="#D68D7E" stroke="#D68D7E" d="M1492.729,743.916l-110.004-123.135l-14.804,159.986L1492.729,743.916z"/>
	<path fill="#D18580" stroke="#D18580" d="M1619.146,769.24l-126.417-25.324l-124.808,36.852L1619.146,769.24z"/>
	<path fill="#D18674" stroke="#D18674" d="M1561.615,636.58l-178.891-15.799l110.005,123.137L1561.615,636.58z"/>
	<path fill="#CC8080" stroke="#CC8080" d="M1619.144,769.242l-57.529-132.662l-68.886,107.338L1619.144,769.242z"/>
	<path fill="#C8807D" stroke="#C8807D" d="M1676.575,675.326l-114.96-38.746l57.53,132.66L1676.575,675.326z"/>
	<path fill="#FFFFCC" stroke="#FFFFCC" d="M76.534,736.461L-90.071,624.127L6.862,790.555L76.534,736.461z"/>
	<path fill="#FFFEBD" stroke="#FFFEBD" d="M62.041,620.623l-152.11,3.504L76.534,736.461L62.041,620.623z"/>
	<path fill="#FFFBB9" stroke="#FFFBB9" d="M153.001,645.553l-90.96-24.93l14.493,115.838L153.001,645.553z"/>
	<path fill="#FFF8C3" stroke="#FFF8C3" d="M244.548,794.592l-91.546-149.039l-76.467,90.908L244.548,794.592z"/>
	<path fill="#FFF5C0" stroke="#FFF5C0" d="M298.839,759.582L153,645.553l91.547,149.039L298.839,759.582z"/>
	<path fill="#FFF3AE" stroke="#FFF3AE" d="M319.97,595.584L153,645.553l145.839,114.029L319.97,595.584z"/>
	<path fill="#FFEEA4" stroke="#FFEEA4" d="M478.881,610.141l-158.91-14.557l-21.131,163.998L478.881,610.141z"/>
	<path fill="#FFEAAD" stroke="#FFEAAD" d="M501.995,772.688l-23.113-162.545L298.839,759.582L501.995,772.688z"/>
	<path fill="#FFE294" stroke="#FFE294" d="M588.224,590.605l-109.342,19.535l23.113,162.545L588.224,590.605z"/>
	<path fill="#FFDE9B" stroke="#FFDE9B" d="M618.189,757.387l-29.964-166.781l-86.23,182.08L618.189,757.387z"/>
	<path fill="#FFD98E" stroke="#FFD98E" d="M684.235,703.303l-96.01-112.697l29.964,166.781L684.235,703.303z"/>
	<path fill="#FFD77E" stroke="#FFD77E" d="M676.405,586.605l-88.181,4l96.01,112.695L676.405,586.605z"/>
	<path fill="#FFD078" stroke="#FFD078" d="M832.795,622.73l-156.391-36.125l7.829,116.695L832.795,622.73z"/>
	<path fill="#F6BE6B" stroke="#F6BE6B" d="M1016.654,590.881l-183.858,31.852l54.756,27.438L1016.654,590.881z"/>
	<path fill="#F3BA70" stroke="#F3BA70" d="M974.395,705.02l42.259-114.139L887.551,650.17L974.395,705.02z"/>
	<path fill="#EEB26E" stroke="#EEB26E" d="M1119.082,644.684l-102.429-53.803l-42.258,114.137L1119.082,644.684z"/>
	<path fill="#ECAF5D" stroke="#ECAF5D" d="M1058.258,504.547l-41.604,86.334l102.429,53.803L1058.258,504.547z"/>
	<path fill="#E7A857" stroke="#E7A857" d="M1207.053,542.992l-148.795-38.445l60.824,140.137L1207.053,542.992z"/>
	<path fill="#E4A360" stroke="#E4A360" d="M1227.591,637.287l-20.538-94.295l-87.971,101.691L1227.591,637.287z"/>
	<path fill="#DE9A60" stroke="#DE9A60" d="M1382.724,620.781l-175.672-77.789l20.538,94.295L1382.724,620.781z"/>
	<path fill="#DA945C" stroke="#DA945C" d="M1409.89,566.516l-202.837-23.523l175.672,77.789L1409.89,566.516z"/>
	<path fill="#D38866" stroke="#D38866" d="M1561.615,636.58l-151.725-70.064l-27.165,54.266L1561.615,636.58z"/>
	<path fill="#D0845F" stroke="#D0845F" d="M1497.813,520.41l-87.924,46.105l151.726,70.064L1497.813,520.41z"/>
	<path fill="#CC805D" stroke="#CC805D" d="M1577.341,528.939l-79.528-8.529l63.802,116.17L1577.341,528.939z"/>
	<path fill="#C9806A" stroke="#C9806A" d="M1676.574,675.328l-99.233-146.389l-15.727,107.641L1676.574,675.328z"/>
	<path fill="#C68056" stroke="#C68056" d="M1668.358,373.547l-91.017,155.393l99.233,146.387L1668.358,373.547z"/>
	<path fill="#FDC889" stroke="#FDC889" d="M-111.119,366.879l-11.267-85.836l32.316,343.084L-111.119,366.879z"/>
	<path fill="#FFDA8B" stroke="#FFDA8B" d="M-80.963,484.531l-30.156-117.652l21.049,257.248L-80.963,484.531z"/>
	<path fill="#FFECA3" stroke="#FFECA3" d="M62.041,620.625L-80.963,484.531l-9.107,139.596L62.041,620.625z"/>
	<path fill="#FFE18D" stroke="#FFE18D" d="M92.729,461.5l-173.692,23.031L62.041,620.625L92.729,461.5z"/>
	<path fill="#FFE18C" stroke="#FFE18C" d="M166.721,523.486L92.728,461.5L62.041,620.625L166.721,523.486z"/>
	<path fill="#FFEEA0" stroke="#FFEEA0" d="M153,645.553l13.721-122.066l-104.68,97.139L153,645.553z"/>
	<path fill="#FFE998" stroke="#FFE998" d="M319.97,595.584l-153.25-72.098L153,645.553L319.97,595.584z"/>
	<path fill="#FFDE86" stroke="#FFDE86" d="M287.671,510.021l-120.95,13.465l153.25,72.098L287.671,510.021z"/>
	<path fill="#FFDD83" stroke="#FFDD83" d="M403.677,535.906l-116.005-25.885l32.3,85.562L403.677,535.906z"/>
	<path fill="#FFE189" stroke="#FFE189" d="M478.883,610.141l-75.205-74.234l-83.706,59.678L478.883,610.141z"/>
	<path fill="#FFD06F" stroke="#FFD06F" d="M531.134,424.686L403.677,535.906l75.205,74.234L531.134,424.686z"/>
	<path fill="#FFD06F" stroke="#FFD06F" d="M588.225,590.605l-57.091-165.92l-52.252,185.455L588.225,590.605z"/>
	<path fill="#FFC359" stroke="#FFC359" d="M664.547,475.91l-133.412-51.225l57.09,165.92L664.547,475.91z"/>
	<path fill="#FFCB67" stroke="#FFCB67" d="M676.405,586.605L664.547,475.91l-76.322,114.695L676.405,586.605z"/>
	<path fill="#FFBA4C" stroke="#FFBA4C" d="M798.187,422.023l-133.64,53.887l11.857,110.695L798.187,422.023z"/>
	<path fill="#FFC157" stroke="#FFC157" d="M832.795,622.732l-34.608-200.709L676.405,586.605L832.795,622.732z"/>
	<path fill="#F7AE46" stroke="#F7AE46" d="M1023.197,453.109l-225.01-31.086l34.608,200.709L1023.197,453.109z"/>
	<path fill="#F2B458" stroke="#F2B458" d="M1016.654,590.883l6.543-137.773L832.795,622.732L1016.654,590.883z"/>
	<path fill="#EDA649" stroke="#EDA649" d="M1058.258,504.547l-35.062-51.439l-6.543,137.773L1058.258,504.547z"/>
	<path fill="#EB9736" stroke="#EB9736" d="M1121.564,431.424l-98.367,21.686l35.062,51.438L1121.564,431.424z"/>
	<path fill="#E7993F" stroke="#E7993F" d="M1207.053,542.992l-85.489-111.568l-63.306,73.123L1207.053,542.992z"/>
	<path fill="#E38C30" stroke="#E38C30" d="M1208.365,378.017l-86.802,53.407l85.489,111.568L1208.365,378.017z"/>
	<path fill="#DE812D" stroke="#DE812D" d="M1383.768,381.797l-175.402-3.78l-1.312,164.976L1383.768,381.797z"/>
	<path fill="#DA8944" stroke="#DA8944" d="M1409.889,566.518l-26.121-184.721l-176.715,161.195L1409.889,566.518z"/>
	<path fill="#D37F45" stroke="#D37F45" d="M1497.813,520.412l-114.045-138.616l26.121,184.72L1497.813,520.412z"/>
	<path fill="#D17133" stroke="#D17133" d="M1513.183,399.355l-129.415-17.559l114.045,138.615L1513.183,399.355z"/>
	<path fill="#CD7645" stroke="#CD7645" d="M1577.341,528.939l-64.158-129.584l-15.37,121.057L1577.341,528.939z"/>
	<path fill="#C96D37" stroke="#C96D37" d="M1668.358,373.547l-155.174,25.811l64.157,129.582L1668.358,373.547z"/>
	<path fill="#FDC884" stroke="#FDC884" d="M5.258,411.475l-116.377-44.597l30.156,117.653L5.258,411.475z"/>
	<path fill="#FED280" stroke="#FED280" d="M92.729,461.498l-87.47-50.023l-86.222,73.057L92.729,461.498z"/>
	<path fill="#FDC376" stroke="#FDC376" d="M176.198,341.68L5.259,411.477l87.47,50.023L176.198,341.68z"/>
	<path fill="#FECB74" stroke="#FECB74" d="M166.721,523.486l9.477-181.807L92.728,461.5L166.721,523.486z"/>
	<path fill="#FECD6E" stroke="#FECD6E" d="M287.671,510.021L176.198,341.68l-9.477,181.807L287.671,510.021z"/>
	<path fill="#FDBD68" stroke="#FDBD68" d="M284.328,349.914l-108.131-8.235l111.474,168.343L284.328,349.914z"/>
	<path fill="#FDBC62" stroke="#FDBC62" d="M414.962,356.357l-130.634-6.444l3.343,160.108L414.962,356.357z"/>
	<path fill="#FFCB65" stroke="#FFCB65" d="M403.677,535.906l11.286-179.549L287.671,510.021L403.677,535.906z"/>
	<path fill="#FEBF55" stroke="#FEBF55" d="M531.135,424.686l-116.173-68.328l-11.286,179.549L531.135,424.686z"/>
	<path fill="#FCA94B" stroke="#FCA94B" d="M569.154,314.435l-154.192,41.922l116.173,68.328L569.154,314.435z"/>
	<path fill="#FEAE42" stroke="#FEAE42" d="M664.548,475.91l-95.393-161.476l-38.02,110.251L664.548,475.91z"/>
	<path fill="#FCA03A" stroke="#FCA03A" d="M683.428,293.427l-114.274,21.007l95.393,161.476L683.428,293.427z"/>
	<path fill="#FEA531" stroke="#FEA531" d="M798.187,422.023L683.429,293.426L664.547,475.91L798.187,422.023z"/>
	<path fill="#FA8F28" stroke="#FA8F28" d="M843.246,284.069l-159.818,9.358l114.758,128.597L843.246,284.069z"/>
	<path fill="#F68C25" stroke="#F68C25" d="M924.139,326.505l-80.893-42.436l-45.06,137.955L924.139,326.505z"/>
	<path fill="#F49725" stroke="#F49725" d="M1023.197,453.109l-99.058-126.604l-125.952,95.519L1023.197,453.109z"/>
	<path fill="#ED8E23" stroke="#ED8E23" d="M1121.564,431.424L924.139,326.505l99.058,126.604L1121.564,431.424z"/>
	<path fill="#E8781B" stroke="#E8781B" d="M1135.715,231.452l-211.576,95.053l197.425,104.919L1135.715,231.452z"/>
	<path fill="#E37617" stroke="#E37617" d="M1208.365,378.017l-72.65-146.565l-14.151,199.972L1208.365,378.017z"/>
	<path fill="#DE6315" stroke="#DE6315" d="M1242.121,250.108l-106.406-18.657l72.65,146.565L1242.121,250.108z"/>
	<path fill="#DB6917" stroke="#DB6917" d="M1383.768,381.797l-141.646-131.689l-33.757,127.909L1383.768,381.797z"/>
	<path fill="#D65B16" stroke="#D65B16" d="M1387.447,273.155l-145.323-23.046l141.645,131.688L1387.447,273.155z"/>
	<path fill="#D26218" stroke="#D26218" d="M1513.183,399.355l-125.736-126.202l-3.679,108.643L1513.183,399.355z"/>
	<path fill="#CD4F16" stroke="#CD4F16" d="M1523.422,204.146l-135.976,69.007l125.736,126.202L1523.422,204.146z"/>
	<path fill="#C84916" stroke="#C84916" d="M1593.141,227.178l-69.719-23.032l-10.239,195.209L1593.141,227.178z"/>
	<path fill="#C75818" stroke="#C75818" d="M1668.359,373.545l-75.218-146.367l-79.958,172.177L1668.359,373.545z"/>
	<path fill="#BE2611" stroke="#BE2611" d="M1599.107-199.606l-5.966,426.786l75.217,146.368L1599.107-199.606z"/>
	<path fill="#FBB783" stroke="#FBB783" d="M5.258,411.475l-127.644-130.432l11.267,85.835L5.258,411.475z"/>
	<path fill="#F9AD7B" stroke="#F9AD7B" d="M69.073,244.315l-191.459,36.728L5.258,411.475L69.073,244.315z"/>
	<path fill="#FAB073" stroke="#FAB073" d="M176.198,341.68L69.073,244.315L5.258,411.475L176.198,341.68z"/>
	<path fill="#F9A26D" stroke="#F9A26D" d="M152.36,263.88l-83.286-19.565l107.125,97.365L152.36,263.88z"/>
	<path fill="#FAA968" stroke="#FAA968" d="M284.327,349.915L152.36,263.881l23.838,77.799L284.327,349.915z"/>
	<path fill="#F9A262" stroke="#F9A262" d="M351.243,276.507L152.36,263.881l131.969,86.034L351.243,276.507z"/>
	<path fill="#FAA75C" stroke="#FAA75C" d="M414.962,356.357l-63.719-79.851l-66.915,73.408L414.962,356.357z"/>
	<path fill="#F99A55" stroke="#F99A55" d="M405.411,224.229l-54.168,52.277l63.719,79.852L405.411,224.229z"/>
	<path fill="#F9934C" stroke="#F9934C" d="M553.408,230.936l-147.997-6.707l9.551,132.129L553.408,230.936z"/>
	<path fill="#FA9746" stroke="#FA9746" d="M569.154,314.434l-15.747-83.497l-138.445,125.42L569.154,314.434z"/>
	<path fill="#FA8C3A" stroke="#FA8C3A" d="M683.428,293.427l-130.021-62.49l15.747,83.497L683.428,293.427z"/>
	<path fill="#F98234" stroke="#F98234" d="M683.518,227.855l-130.11,3.082l130.021,62.49L683.518,227.855z"/>
	<path fill="#FA8128" stroke="#FA8128" d="M843.247,284.069l-159.729-56.215l-0.088,65.572L843.247,284.069z"/>
	<path fill="#F57223" stroke="#F57223" d="M836.329,171.562l-152.812,56.292l159.729,56.215L836.329,171.562z"/>
	<path fill="#F0691F" stroke="#F0691F" d="M910.957,193.727l-74.628-22.165l6.917,112.506L910.957,193.727z"/>
	<path fill="#F07520" stroke="#F07520" d="M924.139,326.505l-13.182-132.778l-67.711,90.342L924.139,326.505z"/>
	<path fill="#EA691B" stroke="#EA691B" d="M1135.715,231.452l-224.758-37.725l13.182,132.778L1135.715,231.452z"/>
	<path fill="#E35115" stroke="#E35115" d="M1102.435,109.53l-191.478,84.197l224.758,37.725L1102.435,109.53z"/>
	<path fill="#DC4210" stroke="#DC4210" d="M1206.105,110.193l-103.67-0.663l33.28,121.922L1206.105,110.193z"/>
	<path fill="#DB4B12" stroke="#DB4B12" d="M1242.121,250.107l-36.017-139.916l-70.39,121.26L1242.121,250.107z"/>
	<path fill="#D63E11" stroke="#D63E11" d="M1320.418,147.459l-114.312-37.267l36.018,139.916L1320.418,147.459z"/>
	<path fill="#D44813" stroke="#D44813" d="M1387.447,273.154l-67.028-125.694l-78.295,102.649L1387.447,273.154z"/>
	<path fill="#CF3C12" stroke="#CF3C12" d="M1418.132,157.875l-97.714-10.415l67.028,125.694L1418.132,157.875z"/>
	<path fill="#CC3B13" stroke="#CC3B13" d="M1523.422,204.146l-105.29-46.272l-30.686,115.279L1523.422,204.146z"/>
	<path fill="#C62611" stroke="#C62611" d="M1550.585,78.553l-132.453,79.322l105.29,46.272L1550.585,78.553z"/>
	<path fill="#C32D12" stroke="#C32D12" d="M1593.141,227.178l-42.556-148.625l-27.163,125.594L1593.141,227.178z"/>
	<path fill="#C01D0F" stroke="#C01D0F" d="M1550.229,11.939l0.357,66.613l42.555,148.625L1550.229,11.939z"/>
	<path fill="#BC060C" stroke="#BC060C" d="M1599.107-199.606l-48.878,211.546l42.912,215.239L1599.107-199.606z"/>
	<path fill="#F6967B" stroke="#F6967B" d="M69.073,244.315l-181.356-89.696l-10.104,126.423L69.073,244.315z"/>
	<path fill="#F48774" stroke="#F48774" d="M1.746,102.879l-114.027,51.741l181.355,89.694L1.746,102.879z"/>
	<path fill="#F4816B" stroke="#F4816B" d="M174.132,111.523L1.744,102.88l67.33,141.435L174.132,111.523z"/>
	<path fill="#F68E6A" stroke="#F68E6A" d="M152.359,263.88l21.772-152.357L69.073,244.315L152.359,263.88z"/>
	<path fill="#F58361" stroke="#F58361" d="M296.168,148.496l-122.037-36.973L152.359,263.88L296.168,148.496z"/>
	<path fill="#F7905F" stroke="#F7905F" d="M351.242,276.506l-55.074-128.01L152.359,263.88L351.242,276.506z"/>
	<path fill="#F78A57" stroke="#F78A57" d="M405.409,224.229l-109.242-75.733l55.074,128.01L405.409,224.229z"/>
	<path fill="#F57850" stroke="#F57850" d="M442.237,87.145l-146.068,61.351l109.243,75.732L442.237,87.145z"/>
	<path fill="#F67A46" stroke="#F67A46" d="M553.408,230.936L442.237,87.145l-36.826,137.083L553.408,230.936z"/>
	<path fill="#F56D3D" stroke="#F56D3D" d="M577.939,108.776l-135.703-21.63l111.171,143.791L577.939,108.776z"/>
	<path fill="#F77435" stroke="#F77435" d="M683.517,227.854L577.939,108.776l-24.532,122.161L683.517,227.854z"/>
	<path fill="#F5602B" stroke="#F5602B" d="M707.812,38.376l-129.873,70.399l105.578,119.079L707.812,38.376z"/>
	<path fill="#F56022" stroke="#F56022" d="M836.329,171.562L707.811,38.376l-24.294,189.478L836.329,171.562z"/>
	<path fill="#F04F1D" stroke="#F04F1D" d="M849.319,83.243L707.812,38.376l128.518,133.187L849.319,83.243z"/>
	<path fill="#EE571C" stroke="#EE571C" d="M910.958,193.727l-61.64-110.484l-12.989,88.319L910.958,193.727z"/>
	<path fill="#E94B19" stroke="#E94B19" d="M970.127,69.691L849.319,83.243l61.64,110.484L970.127,69.691z"/>
	<path fill="#E54715" stroke="#E54715" d="M1102.435,109.53L970.127,69.691l-59.169,124.036L1102.435,109.53z"/>
	<path fill="#E03411" stroke="#E03411" d="M1017.938,11.85l-47.811,57.841l132.308,39.838L1017.938,11.85z"/>
	<path fill="#D9250B" stroke="#D9250B" d="M1231.832-16.62l-213.896,28.471l84.498,97.679L1231.832-16.62z"/>
	<path fill="#D7290C" stroke="#D7290C" d="M1206.106,110.193l25.728-126.813l-129.398,126.15L1206.106,110.193z"/>
	<path fill="#D2270D" stroke="#D2270D" d="M1320.418,147.459l-88.585-164.08l-25.728,126.812L1320.418,147.459z"/>
	<path fill="#CE170C" stroke="#CE170C" d="M1344.74-31.836L1231.833-16.62l88.585,164.08L1344.74-31.836z"/>
	<path fill="#CC220E" stroke="#CC220E" d="M1418.132,157.875L1344.74-31.836l-24.322,179.296L1418.132,157.875z"/>
	<path fill="#C80F0C" stroke="#C80F0C" d="M1397.943-37.695l-53.202,5.858l73.392,189.711L1397.943-37.695z"/>
	<path fill="#C5130D" stroke="#C5130D" d="M1550.585,78.553L1397.943-37.695l20.189,195.569L1550.585,78.553z"/>
	<path fill="#C0050C" stroke="#C0050C" d="M1550.228,11.939l-152.285-49.634l152.643,116.248L1550.228,11.939z"/>
	<path fill="#F08073" stroke="#F08073" d="M3.483,40.094L-77.3-40.673l-34.983,195.293L3.483,40.094z"/>
	<path fill="#F28073" stroke="#F28073" d="M1.744,102.88l1.738-62.786l-115.764,114.527L1.744,102.88z"/>
	<path fill="#F27B6A" stroke="#F27B6A" d="M174.131,111.523L3.482,40.094L1.744,102.88L174.131,111.523z"/>
	<path fill="#F17763" stroke="#F17763" d="M201.061,16.394L3.482,40.094l170.649,71.429L201.061,16.394z"/>
	<path fill="#F2735C" stroke="#F2735C" d="M296.168,148.496L201.061,16.395l-26.93,95.128L296.168,148.496z"/>
	<path fill="#F17157" stroke="#F17157" d="M290.015-7.349l-88.954,23.743l95.107,132.102L290.015-7.349z"/>
	<path fill="#F26D51" stroke="#F26D51" d="M442.236,87.146L290.015-7.348l6.153,155.844L442.236,87.146z"/>
	<path fill="#EF6A4A" stroke="#EF6A4A" d="M356.563-80.411L290.015-7.347l152.221,94.493L356.563-80.411z"/>
	<path fill="#EF6541" stroke="#EF6541" d="M491.792-46.152L356.563-80.411l85.673,167.557L491.792-46.152z"/>
	<path fill="#F25F3B" stroke="#F25F3B" d="M577.94,108.776L491.792-46.151L442.236,87.146L577.94,108.776z"/>
	<path fill="#F0582E" stroke="#F0582E" d="M676.587-71.217L491.792-46.152l86.148,154.927L676.587-71.217z"/>
	<path fill="#F15226" stroke="#F15226" d="M707.812,38.376L676.587-71.217L577.94,108.775L707.812,38.376z"/>
	<path fill="#EF4D1C" stroke="#EF4D1C" d="M751.175-80.14l-74.588,8.923l31.225,109.593L751.175-80.14z"/>
	<path fill="#EE481B" stroke="#EE481B" d="M849.319,83.243L751.175-80.14L707.812,38.376L849.319,83.243z"/>
	<path fill="#E84216" stroke="#E84216" d="M869.314-128.58L751.175-80.14l98.144,163.383L869.314-128.58z"/>
	<path fill="#E63B15" stroke="#E63B15" d="M970.127,69.691l-100.813-198.27L849.319,83.243L970.127,69.691z"/>
	<path fill="#E13511" stroke="#E13511" d="M1017.938,11.85L869.314-128.579l100.813,198.27L1017.938,11.85z"/>
	<path fill="#DE330E" stroke="#DE330E" d="M1013.216-106.642l-143.901-21.937L1017.938,11.85L1013.216-106.642z"/>
	<path fill="#D72709" stroke="#D72709" d="M1230.946-68.285l-217.729-38.357l4.721,118.492L1230.946-68.285z"/>
	<path fill="#D42009" stroke="#D42009" d="M1231.832-16.621l-0.887-51.665L1017.938,11.85L1231.832-16.621z"/>
	<path fill="#CD1509" stroke="#CD1509" d="M1344.74-31.836l-113.794-36.448l0.887,51.664L1344.74-31.836z"/>
	<path fill="#C91107" stroke="#C91107" d="M1346.432-148.333l-115.486,80.048l113.795,36.449L1346.432-148.333z"/>
	<path fill="#C50B06" stroke="#C50B06" d="M1403.614-124.906l-57.182-23.427l-1.691,116.497L1403.614-124.906z"/>
	<path fill="#C50A08" stroke="#C50A08" d="M1397.943-37.695l5.671-87.211l-58.873,93.07L1397.943-37.695z"/>
	<path fill="#C10309" stroke="#C10309" d="M1550.228,11.939l-146.614-136.846l-5.671,87.211L1550.228,11.939z"/>
	<path fill="#BB0007" stroke="#BB0007" d="M1599.107-199.606l-195.493,74.7l146.614,136.846L1599.107-199.606z"/>
	<path fill="#ED5423" stroke="#ED5423" d="M356.563-80.412l1242.544-119.196L-77.3-40.673L356.563-80.412z"/>
	<path fill="#EE755B" stroke="#EE755B" d="M201.062,16.394l155.502-96.805L-77.3-40.673L201.062,16.394z"/>
	<path fill="#EF7B68" stroke="#EF7B68" d="M3.483,40.094l197.579-23.7L-77.3-40.673L3.483,40.094z"/>
	<path fill="#EE6F51" stroke="#EE6F51" d="M290.015-7.347l66.548-73.063L201.061,16.394L290.015-7.347z"/>
	<path fill="#DD350C" stroke="#DD350C" d="M869.314-128.579l729.793-71.028L356.563-80.411L869.314-128.579z"/>
	<path fill="#ED5323" stroke="#ED5323" d="M676.587-71.217l192.727-57.362l-512.75,48.168L676.587-71.217z"/>
	<path fill="#EE5E34" stroke="#EE5E34" d="M491.792-46.152l184.795-25.064l-320.023-9.194L491.792-46.152z"/>
	<path fill="#EA4716" stroke="#EA4716" d="M751.175-80.14l118.139-48.439L676.587-71.217L751.175-80.14z"/>
	<path fill="#C81404" stroke="#C81404" d="M1346.432-148.333l252.675-51.273l-729.793,71.028L1346.432-148.333z"/>
	<path fill="#D52806" stroke="#D52806" d="M1013.217-106.643l333.215-41.69l-477.118,19.754L1013.217-106.643z"/>
	<path fill="#CE1C06" stroke="#CE1C06" d="M1230.947-68.285l115.485-80.048l-333.216,41.691L1230.947-68.285z"/>
	<path fill="#BD0205" stroke="#BD0205" d="M1403.614-124.906l195.493-74.7l-252.675,51.273L1403.614-124.906z"/>
</g>
</svg>
